<svg width="64" height="64" viewBox="0 0 64 64" fill="none" xmlns="http://www.w3.org/2000/svg">
<rect width="64" height="64" rx="32" fill="#003D7C" fill-opacity="0.05"/>
<path d="M42.6667 44V41.3333C42.6667 39.9188 42.1048 38.5623 41.1046 37.5621C40.1044 36.5619 38.7479 36 37.3334 36H26.6667C25.2522 36 23.8957 36.5619 22.8955 37.5621C21.8953 38.5623 21.3334 39.9188 21.3334 41.3333V44M37.3334 25.3333C37.3334 28.2789 34.9456 30.6667 32 30.6667C29.0545 30.6667 26.6667 28.2789 26.6667 25.3333C26.6667 22.3878 29.0545 20 32 20C34.9456 20 37.3334 22.3878 37.3334 25.3333Z" stroke="#0473E6" stroke-width="2.66667" stroke-linecap="round" stroke-linejoin="round"/>
</svg>
