<svg width="20" height="24" viewBox="0 0 20 24" fill="none" xmlns="http://www.w3.org/2000/svg">
<path fill-rule="evenodd" clip-rule="evenodd" d="M10 20.3333C14.6024 20.3333 18.3333 16.6024 18.3333 12C18.3333 7.39763 14.6024 3.66667 10 3.66667C5.39763 3.66667 1.66667 7.39763 1.66667 12C1.66667 16.6024 5.39763 20.3333 10 20.3333ZM10 22C4.47715 22 0 17.5228 0 12C0 6.47715 4.47715 2 10 2C15.5228 2 20 6.47715 20 12C20 17.5228 15.5228 22 10 22ZM8.8058 14.2011L5.58908 10.9863L4.41092 12.1652L8.80746 16.559L15.8733 9.47749L14.6935 8.30029L8.8058 14.2011Z" fill="#003D7C"/>
</svg>
