<?xml version="1.0" encoding="utf-8"?>
<!-- Generator: Adobe Illustrator 27.5.0, SVG Export Plug-In . SVG Version: 6.00 Build 0)  -->
<svg version="1.1" xmlns="http://www.w3.org/2000/svg" xmlns:xlink="http://www.w3.org/1999/xlink" x="0px" y="0px"
	 viewBox="0 0 500 500" xml:space="preserve">
<g id="BACKGROUND">
	<rect x="0" style="fill:none" width="500" height="500"/>
</g>
<g id="OBJECTS">
	<g>
		<g>
			<polygon style="fill:#FAB45C;" points="113.845,79.692 116.393,91.723 122.287,88.735 121.705,108.142 118.019,96.831 
				112.327,100.468 107.277,82.437 			"/>
			<polygon style="fill:#FAB45C;" points="188.949,43.401 182.184,53.67 188.452,55.761 174.24,68.989 179.693,58.418 
				173.106,56.925 182.379,40.658 			"/>
			<polygon style="fill:#FAB45C;" points="211.293,117.397 201.986,125.466 207.463,129.182 190.173,138.087 198.297,129.37 
				192.349,126.145 205.701,112.972 			"/>
		</g>
		<g>
			<g>
				<path style="fill:#FAB45C;" d="M305.888,102.734c0-6.847-5.602-12.386-12.473-12.283c-6.388,0.096-11.73,5.217-12.077,11.596
					c-0.216,3.958,1.444,7.535,4.171,9.926c2.471,2.166,3.792,5.363,3.792,8.65v0h8.605v-0.002c0-3.333,1.41-6.513,3.892-8.736
					C304.308,109.635,305.888,106.369,305.888,102.734z"/>
				<path style="opacity:0.3;fill:#1D1D1B;" d="M297.97,91.252c3.509,7.295,1.779,17.832-6.011,20.582
					c-1.634,0.7-3.268,1.398-4.902,1.828c1.469,1.988,2.244,4.447,2.244,6.961h8.605v-0.002c0-3.333,1.41-6.513,3.893-8.736
					c2.51-2.249,4.09-5.515,4.09-9.15C305.888,97.488,302.598,93.013,297.97,91.252z"/>
				
					<path style="fill:none;stroke:#292935;stroke-width:0.75;stroke-linecap:round;stroke-linejoin:round;stroke-miterlimit:10;" d="
					M291.723,120.186c0,0,0.158-19.345-2.373-19.24s-0.463,5.804,2.151,5.804c2.614,0,6.514-11.958,2.338-11.958"/>
				
					<path style="fill:none;stroke:#292935;stroke-width:0.75;stroke-linecap:round;stroke-linejoin:round;stroke-miterlimit:10;" d="
					M295.954,120.186c0,0-0.158-19.345,2.373-19.24c2.531,0.105,0.463,5.804-2.151,5.804c-2.614,0-6.514-11.958-2.338-11.958"/>
				<path style="opacity:0.3;fill:#FFFFFF;" d="M294.097,92.495c-3.152-0.7-7.047,1.042-8.925,3.6
					c-2.284,3.111-2.404,6.929-0.862,10.391c0.466,1.047,1.984,0.27,1.767-0.745c-0.629-2.95-0.446-6.199,1.58-8.605
					c1.727-2.051,4.272-2.894,6.492-4.247C294.3,92.797,294.284,92.536,294.097,92.495z"/>
				<g>
					<path style="fill:#323850;" d="M289.108,116.597h8.948c0.786,0,1.423,0.637,1.423,1.423v0c0,0.786-0.637,1.423-1.423,1.423
						h-8.948c-0.786,0-1.423-0.637-1.423-1.423v0C287.685,117.234,288.322,116.597,289.108,116.597z"/>
					<path style="fill:#323850;" d="M289.108,119.444h8.948c0.786,0,1.423,0.637,1.423,1.423v0c0,0.786-0.637,1.423-1.423,1.423
						h-8.948c-0.786,0-1.423-0.637-1.423-1.423v0C287.685,120.081,288.322,119.444,289.108,119.444z"/>
					<path style="fill:#323850;" d="M289.108,122.29h8.948c0.786,0,1.423,0.637,1.423,1.423l0,0c0,0.786-0.637,1.423-1.423,1.423
						h-8.948c-0.786,0-1.423-0.637-1.423-1.423l0,0C287.685,122.927,288.322,122.29,289.108,122.29z"/>
					<path style="opacity:0.3;fill:#1D1D1B;" d="M299.479,120.867c0-0.786-0.637-1.423-1.423-1.423c0.786,0,1.423-0.637,1.423-1.423
						c0-0.786-0.637-1.423-1.423-1.423h-0.591c-1.254,3.877-5.211,5.649-9.324,6.077c-0.279,0.26-0.457,0.628-0.457,1.039
						c0,0.786,0.637,1.423,1.423,1.423h8.948c0.786,0,1.423-0.637,1.423-1.423c0-0.786-0.637-1.423-1.423-1.423
						C298.842,122.29,299.479,121.653,299.479,120.867z"/>
					<g style="opacity:0.3;">
						<path style="fill:#FFFFFF;" d="M297.786,119.444c0,0-0.525,0.167-1.314,0.286c-0.788,0.127-1.839,0.21-2.89,0.214
							c-1.051-0.003-2.102-0.085-2.89-0.213c-0.788-0.119-1.314-0.287-1.314-0.287s0.525-0.168,1.314-0.287
							c0.788-0.127,1.839-0.21,2.89-0.213c1.051,0.004,2.102,0.087,2.89,0.214C297.26,119.276,297.786,119.444,297.786,119.444z"/>
					</g>
					<g style="opacity:0.3;">
						<path style="fill:#FFFFFF;" d="M297.786,122.29c0,0-0.525,0.167-1.314,0.286c-0.788,0.127-1.839,0.21-2.89,0.214
							c-1.051-0.003-2.102-0.085-2.89-0.213c-0.788-0.119-1.314-0.287-1.314-0.287s0.525-0.168,1.314-0.287
							c0.788-0.127,1.839-0.21,2.89-0.213c1.051,0.004,2.102,0.087,2.89,0.214C297.26,122.123,297.786,122.29,297.786,122.29z"/>
					</g>
				</g>
			</g>
			<g>
				<path style="fill:#EC825E;" d="M244.004,152.457c-7.114,2.935,7.543,23.554,9.401,22.788
					C255.264,174.479,251.118,149.522,244.004,152.457z"/>
				<circle style="fill:#EC825E;" cx="255.209" cy="179.617" r="1.944"/>
			</g>
			<g>
				<path style="fill:#EC825E;" d="M339.253,102.964c-7.15-2.846-10.983,22.161-9.115,22.904S346.404,105.809,339.253,102.964z"/>
				<circle style="fill:#EC825E;" cx="328.39" cy="130.261" r="1.944"/>
			</g>
			<path style="fill:#FAB45C;" d="M310.191,74.165c-1.085,1.742-1.908,3.655-2.721,5.536c-0.715,1.653-1.578,3.341-1.938,5.11
				c-0.04,0.198,0.216,0.399,0.371,0.216c1.243-1.467,2.087-3.28,2.989-4.97c0.931-1.744,1.869-3.507,2.543-5.368
				C311.704,73.943,310.585,73.533,310.191,74.165z"/>
			<path style="fill:#FAB45C;" d="M294.253,70.539c-0.327,2.026-0.346,4.109-0.368,6.158c-0.019,1.801-0.163,3.691,0.188,5.462
				c0.039,0.198,0.353,0.284,0.425,0.056c0.579-1.833,0.656-3.832,0.834-5.739c0.184-1.968,0.367-3.956,0.269-5.934
				C295.562,69.749,294.372,69.803,294.253,70.539z"/>
			<path style="fill:#FAB45C;" d="M319.824,84.008c-1.621,1.259-3.054,2.77-4.467,4.254c-1.242,1.305-2.636,2.59-3.585,4.125
				c-0.106,0.172,0.065,0.449,0.273,0.331c1.673-0.947,3.092-2.357,4.523-3.63c1.477-1.314,2.966-2.644,4.241-4.158
				C321.32,84.322,320.413,83.55,319.824,84.008z"/>
			<path style="fill:#FAB45C;" d="M278.315,74.165c1.085,1.742,1.908,3.655,2.721,5.536c0.715,1.653,1.578,3.341,1.938,5.11
				c0.04,0.198-0.216,0.399-0.371,0.216c-1.243-1.467-2.086-3.28-2.989-4.97c-0.931-1.744-1.869-3.507-2.543-5.368
				C276.803,73.943,277.921,73.533,278.315,74.165z"/>
			<path style="fill:#FAB45C;" d="M268.683,84.008c1.621,1.259,3.054,2.77,4.467,4.254c1.242,1.305,2.636,2.59,3.585,4.125
				c0.106,0.172-0.065,0.449-0.273,0.331c-1.673-0.947-3.092-2.357-4.523-3.63c-1.477-1.314-2.966-2.644-4.241-4.158
				C267.186,84.322,268.094,83.55,268.683,84.008z"/>
		</g>
		<g>
			<path style="fill:#D4E5EA;" d="M416.581,55.592c-16.534-1.808-45.361-0.851-49.75,39.279s12.04,50.543,39.596,53.557
				c27.556,3.014,45.848-3.601,50.237-43.731S433.115,57.4,416.581,55.592z"/>
			<ellipse style="fill:#D4E5EA;" cx="401.349" cy="170.438" rx="10.602" ry="8.974"/>
			<ellipse style="fill:#D4E5EA;" cx="398.051" cy="196.749" rx="6.597" ry="5.128"/>
			<ellipse style="fill:#D4E5EA;" cx="392.112" cy="218.758" rx="4.645" ry="3.177"/>
			<g>
				
					<line style="fill:none;stroke:#FFFFFF;stroke-width:2;stroke-linecap:round;stroke-linejoin:round;stroke-miterlimit:10;" x1="395.31" y1="72.541" x2="443.781" y2="77.842"/>
				
					<line style="fill:none;stroke:#FFFFFF;stroke-width:2;stroke-linecap:round;stroke-linejoin:round;stroke-miterlimit:10;" x1="385.308" y1="78.037" x2="443.068" y2="84.355"/>
				
					<line style="fill:none;stroke:#FFFFFF;stroke-width:2;stroke-linecap:round;stroke-linejoin:round;stroke-miterlimit:10;" x1="384.595" y1="84.55" x2="424.026" y2="88.862"/>
				
					<line style="fill:none;stroke:#FFFFFF;stroke-width:2;stroke-linecap:round;stroke-linejoin:round;stroke-miterlimit:10;" x1="394.675" y1="92.243" x2="441.644" y2="97.38"/>
				
					<line style="fill:none;stroke:#FFFFFF;stroke-width:2;stroke-linecap:round;stroke-linejoin:round;stroke-miterlimit:10;" x1="383.171" y1="97.575" x2="440.932" y2="103.892"/>
				
					<line style="fill:none;stroke:#FFFFFF;stroke-width:2;stroke-linecap:round;stroke-linejoin:round;stroke-miterlimit:10;" x1="382.458" y1="104.087" x2="440.219" y2="110.405"/>
				
					<line style="fill:none;stroke:#FFFFFF;stroke-width:2;stroke-linecap:round;stroke-linejoin:round;stroke-miterlimit:10;" x1="381.746" y1="110.6" x2="412.011" y2="113.91"/>
				
					<line style="fill:none;stroke:#FFFFFF;stroke-width:2;stroke-linecap:round;stroke-linejoin:round;stroke-miterlimit:10;" x1="390.71" y1="118.17" x2="438.795" y2="123.43"/>
				
					<line style="fill:none;stroke:#FFFFFF;stroke-width:2;stroke-linecap:round;stroke-linejoin:round;stroke-miterlimit:10;" x1="380.322" y1="123.625" x2="438.082" y2="129.942"/>
				
					<line style="fill:none;stroke:#FFFFFF;stroke-width:2;stroke-linecap:round;stroke-linejoin:round;stroke-miterlimit:10;" x1="379.609" y1="130.137" x2="427.288" y2="135.352"/>
			</g>
		</g>
		<g>
			<g>
				<g>
					<polygon style="fill:#717F87;" points="272.114,450.272 277.373,433.098 266.173,433.098 					"/>
					<polygon style="opacity:0.3;fill:#1D1D1B;" points="272.114,450.272 277.373,433.098 266.173,433.098 					"/>
					<circle style="fill:#536269;" cx="272.114" cy="449.635" r="5.941"/>
					<rect x="263.804" y="361.872" style="fill:#717F87;" width="16.621" height="65.166"/>
					<path style="opacity:0.3;fill:#1D1D1B;" d="M270.888,361.872h-7.085v65.166h16.621v-18.243
						C268.834,396.779,270.044,378.713,270.888,361.872z"/>
					<polygon style="fill:#717F87;" points="263.671,422.864 218.396,449.635 272.114,436.249 272.114,422.864 					"/>
					<polygon style="fill:#717F87;" points="280.557,422.864 325.832,449.635 272.114,436.249 272.114,422.864 					"/>
					
						<ellipse transform="matrix(0.7071 -0.7071 0.7071 0.7071 -253.9729 286.1244)" style="fill:#5F7077;" cx="218.396" cy="449.635" rx="8.402" ry="8.402"/>
					<circle style="fill:#2F6169;" cx="325.832" cy="449.635" r="8.402"/>
				</g>
				<g>
					<path style="fill:#2D8AA6;" d="M259.171,231.036c-15.013,0-29.022,4.287-39.888,13.18c1.764-0.512,3.517-1.027,5.249-1.554
						c-1.733,0.527-3.486,1.042-5.249,1.554c-14.594,11.943-23.513,32.206-21.504,61.675c3.505,51.412,43.81,68.498,70.095,68.498
						c26.286,0,78.857-16.081,78.857-68.498C346.731,253.474,324.507,231.036,259.171,231.036z"/>
					<path style="opacity:0.3;fill:#1D1D1B;" d="M261.408,243.421c-29.098,0-53.684,19.392-50.785,61.921
						c2.899,42.529,36.24,61.243,57.984,61.243s65.232-17.883,65.232-61.243S315.454,243.421,261.408,243.421z"/>
				</g>
			</g>
			<g>
				<g>
					<path style="fill:#F6AD84;" d="M291.798,190.871c-0.815,0.419-3.746,6-2.908,9.907c0,0,9.424-0.485,16.765,3.099
						c7.34,3.585-15.046,13.104-28.309,11.53c-13.263-1.574-19.107-11.015-20.007-15.96l8.093-2.698c0,0,3.796-10.119,5.994-26.519
						L291.798,190.871z"/>
					<path style="opacity:0.3;fill:#1D1D1B;" d="M305.654,203.877c-7.34-3.585-16.765-3.099-16.765-3.099
						c-0.837-3.907,2.093-9.488,2.908-9.907l-20.373-20.641c-0.364,2.716-0.772,5.256-1.199,7.61
						c0.708,16.121,10.868,35.098,25.304,35.098C303.942,210.188,309.994,205.996,305.654,203.877z"/>
					<path style="fill:#F6AD84;" d="M312.281,156.663c0.186,0.745-7.913,43.419-26.784,38.388
						c-18.871-5.031-13.467-38.388-13.467-38.388s3.168-19.008,21.803-14.722S312.281,156.663,312.281,156.663z"/>
					<path style="fill:#292935;" d="M291.22,159.397c-1.128,0.476-3.017,0.927-4.538-0.427c-0.317-0.282-0.241-0.809,0.139-0.996
						c0.822-0.405,2.369-0.798,4.434,0.312C291.714,158.533,291.7,159.194,291.22,159.397z"/>
					<path style="fill:#292935;" d="M304.092,162.775c0.901,0.83,2.526,1.893,4.415,1.132c0.394-0.158,0.501-0.68,0.206-0.985
						c-0.637-0.659-1.959-1.552-4.278-1.205C303.919,161.794,303.709,162.422,304.092,162.775z"/>
					
						<path style="fill:none;stroke:#DD8D6B;stroke-width:0.75;stroke-linecap:round;stroke-linejoin:round;stroke-miterlimit:10;" d="
						M297.104,168.388c-0.073,0.032-1.094,6.302-0.948,8.854c0.146,2.552-3.791,1.312-3.791,1.312"/>
					
						<ellipse transform="matrix(0.3003 -0.9538 0.9538 0.3003 44.6475 391.9118)" style="fill:#102237;" cx="289.453" cy="165.524" rx="1.77" ry="0.838"/>
					
						<ellipse transform="matrix(0.3003 -0.9538 0.9538 0.3003 50.0609 407.8253)" style="fill:#102237;" cx="303.006" cy="169.791" rx="1.77" ry="0.838"/>
					<path style="opacity:0.3;fill:#1D1D1B;" d="M312.281,156.663c0,0,0.186-10.436-18.449-14.722
						c-18.635-4.286-21.803,14.722-21.803,14.722s-0.423,2.615-0.619,6.489c-0.018,0.364,3.322-0.386,3.604-0.497
						c5.405-2.124,8.372-8.932,9.055-14.314c-0.079,0.914,0.644,1.932,0.938,2.793c0.32,0.937,0.706,1.857,1.198,2.718
						c0.963,1.687,2.413,3.216,4.414,3.53c1.645,0.258,3.381-0.557,3.963-2.158c-0.253,0.695,0.676,1.856,1.018,2.418
						c0.952,1.561,2.336,3.056,4.234,3.408c2.522,0.467,4.699-1.149,5.307-3.581c0.991,3.467,2.789,6.127,5.097,8.422
						C311.675,160.715,312.335,156.882,312.281,156.663z"/>
					
						<path style="fill:none;stroke:#DD8D6B;stroke-width:0.75;stroke-linecap:round;stroke-linejoin:round;stroke-miterlimit:10;" d="
						M283.032,179.429c0,0-0.146,6.927,4.083,8.385"/>
					<path style="fill:#755A48;" d="M283.251,144.793c0,0,3.447,9.959,8.235,10.916s2.077-7.947,2.077-7.947
						s2.859,11.341,7.973,12.107c5.114,0.766,2.359-10.425,2.359-10.425s2.493,13.969,9.434,14.977
						c3.68,0.534,10.307-10.217,2.838-20.559c-7.469-10.342-19.695-15.139-29.469-7.496c0,0-8.502-1.401-12.524,3.578
						c-4.022,4.979-5.512,9.118-6.244,16.914C266.909,167.728,282.677,159.731,283.251,144.793z"/>
					<path style="opacity:0.3;fill:#1D1D1B;" d="M293.725,148.353c-0.095-0.369-0.162-0.59-0.162-0.59
						S293.619,147.982,293.725,148.353z"/>
					<path style="opacity:0.3;fill:#1D1D1B;" d="M304.145,150.625c-0.137-0.721-0.249-1.18-0.249-1.18
						S303.976,149.892,304.145,150.625z"/>
					<path style="opacity:0.3;fill:#1D1D1B;" d="M317.75,146.464c-1.426,3.535-4.051,6.008-8.028,5.51
						c-3.664,0-6.412-3.664-7.328-8.244c-0.094,3.799,0.053,5.665-1.779,6.581c-5.496,0.916-7.381-4.749-7.381-8.413
						c-0.916,3.664-2.573,10.529-7.328,4.58c-1.279-1.6-2.748-4.58-2.748-7.328c-2.601,6.07-6.847,18.696-15.063,16.143
						c-0.059,0.506-0.114,1.025-0.165,1.565c-1.021,10.87,14.747,2.873,15.321-12.065c0,0,3.447,9.959,8.235,10.916
						c4.034,0.807,2.745-5.385,2.239-7.356c-0.106-0.371-0.162-0.59-0.162-0.59s0.067,0.222,0.162,0.59
						c0.667,2.33,3.399,10.856,7.811,11.517c4.082,0.612,3.151-6.393,2.608-9.245c-0.169-0.733-0.249-1.18-0.249-1.18
						s0.112,0.46,0.249,1.18c0.78,3.385,3.478,12.968,9.185,13.796C316.701,164.911,322.538,155.927,317.75,146.464z"/>
					<g>
						<path style="fill:#F6AD84;" d="M275.011,163.372c-1.491-3.913-1.626-4.664-3.698-4.96s-7.001,7.985,0.688,12.026
							L275.011,163.372z"/>
						<path style="opacity:0.3;fill:#1D1D1B;" d="M270.13,161.931c0.204-0.502,0.542-1.044,1.081-1.108
							c0.526-0.063,0.985,0.374,1.228,0.845c0.37,0.718,0.426,1.557,0.389,2.364c-0.029,0.618-0.113,1.248-0.402,1.795
							c-0.289,0.546-0.817,0.998-1.433,1.054C268.633,167.097,269.678,163.041,270.13,161.931z"/>
						
							<path style="fill:none;stroke:#DD8D6B;stroke-width:0.75;stroke-linecap:round;stroke-linejoin:round;stroke-miterlimit:10;" d="
							M272.836,163.687c-0.035-0.659-0.093-1.329-0.343-1.939c-0.251-0.61-0.726-1.161-1.358-1.348
							c-0.632-0.187-1.412,0.081-1.674,0.686"/>
						
							<path style="fill:none;stroke:#DD8D6B;stroke-width:0.75;stroke-linecap:round;stroke-linejoin:round;stroke-miterlimit:10;" d="
							M271.416,160.619c-1.389,1.169-2.107,3.086-1.827,4.88"/>
					</g>
				</g>
				<g>
					<path style="fill:#F6AD84;" d="M366.516,219.036c0.32-2.104,0.716-4.188,0.664-6.325c-0.068-2.783-0.635-5.706,0.377-8.39
						c0.066-0.174,0.138-0.346,0.215-0.516c0.713-1.585,1.253-1.927,2.328-2.244c0.775-1.639,1.029-6.129,1.546-7.877
						c0.41-1.387,0.842-2.807,1.504-4.099c0.239-0.466,0.727-1.515,1.403-1.422c3.273,0.451,0.239,13.731,0.239,13.731
						s9.465-0.901,10.066,3.305s-7.677,17.592-7.677,17.592L366.516,219.036z"/>
					
						<path style="fill:none;stroke:#DD8D6B;stroke-width:0.75;stroke-linecap:round;stroke-linejoin:round;stroke-miterlimit:10;" d="
						M374.793,201.894c0,0-2.019,5.036,0,5.385s3.067-5.385,3.067-5.385s-1.804,5.735,0,5.909c1.804,0.175,3.649-5.47,3.649-5.47
						s-1.532,5.645,0,5.936c1.532,0.291,2.639-4.534,2.639-4.534"/>
					
						<line style="fill:none;stroke:#DD8D6B;stroke-width:0.75;stroke-linecap:round;stroke-linejoin:round;stroke-miterlimit:10;" x1="369.025" y1="204.825" x2="373.896" y2="204.825"/>
					
						<path style="fill:none;stroke:#DD8D6B;stroke-width:0.75;stroke-linecap:round;stroke-linejoin:round;stroke-miterlimit:10;" d="
						M375.956,206.77c0.025-0.02,1.989,2.746-7.599,1.511"/>
				</g>
				<g>
					<g>
						<g>
							<path style="fill:#F6AD84;" d="M341.206,439.239l0.615,9.099c0,0,10.944,7.132,11.313,7.132s14.839-5.288,14.839-5.288
								l-4.018-14.212L341.206,439.239z"/>
							<path style="fill:#EC6759;" d="M340.815,444.577c-0.527,3.082-1.427,9.94-0.575,17.16c0,0,34.206,5.081,54.789-1.516
								c0,0,2.548-4.582-0.378-5.976c-2.927-1.394-27.953-8.875-29.867-16.424c0,0-5.742,10.294-13.173,9.739
								c-4.84-0.362-7.817-2.24-9.305-3.506C341.765,443.594,340.935,443.877,340.815,444.577z"/>
							<path style="fill:#FBE7D4;" d="M395.029,460.218c-3.774,1.209-8.006,2.034-12.403,2.556
								c0.174-6.311,1.365-9.966,2.547-12.055c4.598,1.768,8.437,3.032,9.481,3.527
								C397.576,455.638,395.029,460.218,395.029,460.218z"/>
							<path style="fill:#FBE7D4;" d="M396.055,456.691c-0.009,1.695-1.026,3.527-1.026,3.527
								c-20.583,6.605-54.788,1.521-54.788,1.521c-0.156-1.292-0.247-2.574-0.293-3.82
								C365.231,462.242,386.785,458.734,396.055,456.691z"/>
							<path style="fill:none;stroke:#C93A2F;stroke-linecap:round;stroke-linejoin:round;stroke-miterlimit:10;" d="
								M385.173,450.718c0,0-12.134-3.101-20.432-11.004"/>
							<path style="fill:none;stroke:#C93A2F;stroke-linecap:round;stroke-linejoin:round;stroke-miterlimit:10;" d="
								M367.458,450.274c0.79-2.031,2.183-3.822,3.957-5.087"/>
							<path style="fill:none;stroke:#C93A2F;stroke-linecap:round;stroke-linejoin:round;stroke-miterlimit:10;" d="
								M371.133,451.967c0.452-2.099,1.631-4.035,3.288-5.4"/>
							<path style="fill:none;stroke:#C93A2F;stroke-linecap:round;stroke-linejoin:round;stroke-miterlimit:10;" d="
								M374.53,453.039c0.344-1.842,1.251-3.575,2.57-4.906c0.122-0.124,0.363-0.228,0.435-0.069"/>
							<path style="fill:none;stroke:#C93A2F;stroke-linecap:round;stroke-linejoin:round;stroke-miterlimit:10;" d="
								M340.483,449.164c2.205,0.362,4.27,1.519,5.731,3.21s2.304,3.903,2.341,6.137"/>
							<path style="fill:none;stroke:#C93A2F;stroke-linecap:round;stroke-linejoin:round;stroke-miterlimit:10;" d="M341.4,443.648
								c2.434,2.826,6.156,4.495,9.885,4.435s7.395-1.849,9.737-4.751"/>
						</g>
						<g>
							<path style="fill:#F6AD84;" d="M313.637,440.155l0.615,9.099c0,0,10.944,7.132,11.313,7.132s14.839-5.288,14.839-5.288
								l-4.018-14.212L313.637,440.155z"/>
							<path style="fill:#EC6759;" d="M313.246,445.493c-0.527,3.082-1.427,9.94-0.575,17.16c0,0,34.206,5.081,54.789-1.516
								c0,0,2.548-4.582-0.378-5.976c-2.927-1.394-27.953-8.875-29.867-16.424c0,0-5.742,10.294-13.173,9.739
								c-4.84-0.362-7.817-2.24-9.305-3.506C314.196,444.51,313.366,444.793,313.246,445.493z"/>
							<path style="fill:#FBE7D4;" d="M367.46,461.134c-3.774,1.209-8.006,2.034-12.403,2.556c0.174-6.311,1.365-9.966,2.547-12.055
								c4.598,1.768,8.437,3.032,9.481,3.527C370.006,456.554,367.46,461.134,367.46,461.134z"/>
							<path style="fill:#FBE7D4;" d="M368.486,457.607c-0.009,1.695-1.026,3.527-1.026,3.527
								c-20.583,6.605-54.788,1.521-54.788,1.521c-0.156-1.292-0.247-2.574-0.293-3.82
								C337.661,463.158,359.216,459.65,368.486,457.607z"/>
							<path style="fill:none;stroke:#C93A2F;stroke-linecap:round;stroke-linejoin:round;stroke-miterlimit:10;" d="
								M357.603,451.634c0,0-12.134-3.101-20.432-11.004"/>
							<path style="fill:none;stroke:#C93A2F;stroke-linecap:round;stroke-linejoin:round;stroke-miterlimit:10;" d="
								M339.889,451.19c0.79-2.031,2.183-3.822,3.957-5.087"/>
							<path style="fill:none;stroke:#C93A2F;stroke-linecap:round;stroke-linejoin:round;stroke-miterlimit:10;" d="
								M343.564,452.883c0.452-2.099,1.631-4.035,3.288-5.4"/>
							<path style="fill:none;stroke:#C93A2F;stroke-linecap:round;stroke-linejoin:round;stroke-miterlimit:10;" d="
								M346.961,453.955c0.344-1.842,1.251-3.575,2.57-4.906c0.122-0.124,0.363-0.228,0.435-0.069"/>
							<path style="fill:none;stroke:#C93A2F;stroke-linecap:round;stroke-linejoin:round;stroke-miterlimit:10;" d="
								M312.913,450.08c2.205,0.362,4.27,1.519,5.731,3.21c1.46,1.691,2.304,3.903,2.341,6.137"/>
							<path style="fill:none;stroke:#C93A2F;stroke-linecap:round;stroke-linejoin:round;stroke-miterlimit:10;" d="
								M313.831,444.564c2.434,2.826,6.156,4.495,9.885,4.435c3.729-0.06,7.395-1.849,9.737-4.751"/>
						</g>
						<g>
							<g>
								<path style="fill:#60A4B0;" d="M364.918,437.568c0,0,9.043-89.728-2.692-107.864
									c-11.735-18.136-45.873-24.537-45.873-24.537v-19.32h-61.039c0,0-18.719,64.279,66.308,58.459
									c0,0,6.717,44.65,14.933,97.431C336.555,441.737,350.836,444.664,364.918,437.568z"/>
								<path style="opacity:0.3;fill:#1D1D1B;" d="M350.028,363.577c-2.738-34.679-37.296-43.899-66.54-48.497
									c-7.735,3.107-15.4,6.319-22.343,10.614c8.507,11.768,25.927,20.978,60.477,18.612c0,0,6.717,44.65,14.933,97.431
									c0,0,10.222,2.093,21.897-1.558c-3.166-3.954-5.548-8.575-6.592-14.312C348.196,404.798,350.944,384.645,350.028,363.577z"
									/>
								<path style="fill:#60A4B0;" d="M339.667,441.39c0,0,6.276-80.28-5.459-98.416s-45.873-24.537-45.873-24.537v-19.32h-61.039
									c0,0-18.719,64.279,66.308,58.459c0,0,7.925,31.67,16.142,84.451C309.745,442.027,325.585,448.487,339.667,441.39z"/>
								<path style="opacity:0.3;fill:#1D1D1B;" d="M317.967,422.203c-5.496-26.565,10.076-67.786-16.488-75.114
									c-24.852-7.988-66.044-14.257-60.246-47.971h-13.937c0,0-18.719,64.279,66.308,58.459c0,0,7.925,31.67,16.142,84.451
									c0,0,9.735,3.967,20.725,2.264C324.449,438.632,319.914,431.452,317.967,422.203z"/>
							</g>
							<rect x="211.614" y="301.581" style="opacity:0.3;fill:#1D1D1B;" width="157.641" height="24.907"/>
						</g>
					</g>
				</g>
				<g>
					<path style="fill:#FAB45C;" d="M299.234,297.65h-68.867l20.904-96.861l14.162-4.04c0,0,5.972,7.841,14.345,7.603
						c2.803-0.073,5.89-1.063,9.115-3.573c0,0,0.101-0.009,0.284-0.027c0.082-0.009,0.183-0.018,0.293-0.028h0.027
						c1.282-0.11,4.434-0.284,8.107,0.165c0.018,0.009,0.037,0.009,0.055,0.009c0.623,0.073,1.255,0.165,1.896,0.284
						c0.238,0.037,0.476,0.082,0.724,0.128c0.037,0.009,0.082,0.018,0.128,0.028c0.192,0.046,0.385,0.082,0.577,0.128
						c1.85,0.421,3.737,1.035,5.505,1.905c0.202,0.101,0.403,0.211,0.605,0.321c0.087,0.049,0.162,0.103,0.24,0.156
						c0.837,0.471,1.653,0.984,2.407,1.594c7.75,6.266,10.671,52.553,9.487,75.232C318.198,300.4,299.234,297.65,299.234,297.65z"/>
					<path style="fill:none;stroke:#DB8321;stroke-linecap:round;stroke-linejoin:round;stroke-miterlimit:10;" d="M289.768,201.843
						c-0.828,3.386-3.97,5.928-7.395,6.573c-3.425,0.646-7.022-0.405-9.931-2.325s-5.201-4.646-7.149-7.536"/>
					<path style="opacity:0.3;fill:#1D1D1B;" d="M302.935,265.033c-3.432-3.352-6.772-5.129-11.916-6.229
						c-11.063-2.366-24.136-1.506-31.678-11.562c-7.178-9.229-10.91-20.468-11.2-31.948l-17.774,82.357c22.956,0,45.911,0,68.867,0
						c3.217,0,6.433,0,9.65,0c2.637,0,4.949,0.415,6.677-2.003c0.811-1.136,1.251-2.49,1.642-3.829
						c2.322-7.944,3.381-16.38,1.961-24.534c-2.726,0.277-5.007,2.073-7.909,2.124c-2.638,0.046-5.112-0.963-6.905-2.913
						C303.873,265.977,303.403,265.49,302.935,265.033z"/>
					<path style="fill:#FAB45C;" d="M365.04,213.818l16.568,5.019c0,0-8.258,54.792-29.285,62.262s-54.681-46.726-54.404-57.76
						c0.277-11.034,4.491-21.595,6.177-20.981c13.505,4.924,38.155,34.026,44.318,46.956
						C348.415,249.315,355.387,230.129,365.04,213.818z"/>
					<path style="opacity:0.3;fill:#1D1D1B;" d="M368.316,214.811c5.791,24.354-5.838,47.835-22.88,66.733
						c2.396,0.433,4.71,0.329,6.888-0.445c21.027-7.47,29.285-62.262,29.285-62.262L368.316,214.811z"/>
					<path style="opacity:0.3;fill:#1D1D1B;" d="M295.533,212.936c-6.421-0.504-11.707-3.783-15.756-8.583
						c2.803-0.073,5.89-1.063,9.115-3.573c0,0,0.101-0.009,0.284-0.027c0.082-0.009,0.183-0.018,0.293-0.028h0.027
						c1.282-0.101,4.461-0.256,8.107,0.165c0.018,0.009,0.037,0.009,0.055,0.009c0.623,0.073,1.255,0.165,1.896,0.284
						c0.238,0.037,0.476,0.082,0.724,0.128c0.037,0.009,0.082,0.018,0.128,0.028c0.192,0.046,0.385,0.082,0.577,0.128
						c1.878,0.412,3.774,1.017,5.505,1.905c0.202,0.101,0.403,0.211,0.605,0.321C311.317,206.048,304.355,213.632,295.533,212.936z"
						/>
					<path style="fill:#FAB45C;" d="M277.758,259.571c-18.949,0.385-38.931,4.563-38.931,4.563
						c7.746-12.049,18.511-64.688,18.511-64.688s-13.501,2.508-23.026,8.084c-4.139,2.423-11.83,14.585-17.776,28.707
						c2.073-0.6,4.131-1.201,6.163-1.82c-2.032,0.618-4.09,1.22-6.163,1.82c-7.739,18.379-12.522,40.079-2.669,47.961
						c17.424,13.94,68.35-7.899,68.35-7.899L277.758,259.571z"/>
					<path style="opacity:0.3;fill:#1D1D1B;" d="M279.765,267.099c-15.461,9.502-33.328,16.857-48.821,5.791
						c-13.426-9.722-16.081-23.421-12.947-37.078c-0.485,0.141-0.969,0.282-1.456,0.423c-7.74,18.379-12.528,40.079-2.673,47.963
						c17.424,13.94,68.35-7.899,68.35-7.899L279.765,267.099z"/>
					<path style="fill:none;stroke:#DB8321;stroke-linecap:round;stroke-linejoin:round;stroke-miterlimit:10;" d="M282.218,276.299
						c0,0-22.042,13.187-49.952,12.55"/>
					<path style="fill:none;stroke:#DB8321;stroke-linecap:round;stroke-linejoin:round;stroke-miterlimit:10;" d="M239.545,263.78
						c5.362-10.4,8.793-21.793,10.066-33.425"/>
					<path style="fill:none;stroke:#DB8321;stroke-linecap:round;stroke-linejoin:round;stroke-miterlimit:10;" d="M310.634,229.267
						c7.988,17.676,10.661,36.263,8.204,55.504"/>
				</g>
				<g>
					<path style="fill:#F6AD84;" d="M301.748,256.085c0.644-0.071,11.151,0.95,10.592,2.673c-0.559,1.724-14.743,1.044-14.743,1.044
						L301.748,256.085z"/>
					<path style="opacity:0.3;fill:#1D1D1B;" d="M301.748,256.085c0.644-0.071,11.151,0.95,10.592,2.673
						c-0.559,1.724-14.743,1.044-14.743,1.044L301.748,256.085z"/>
					<path style="fill:#F6AD84;" d="M291.771,254.688c0,0,18.139-2.073,20.699-0.038c2.56,2.034-12.802,3.673-12.802,3.673
						L291.771,254.688z"/>
					<path style="opacity:0.3;fill:#1D1D1B;" d="M291.771,254.688c0,0,18.139-2.073,20.699-0.038
						c2.56,2.034-12.802,3.673-12.802,3.673L291.771,254.688z"/>
					<path style="fill:#F6AD84;" d="M273.962,263.649c0,0,10.139-4.302,15.158-8.091c5.018-3.789,21.136,4.605,20.317,6.519
						c-0.819,1.915-11.691-1.893-11.691-1.893s-3.915,7.254-6.577,8.381c-2.663,1.127-6.631,1.632-9.217,2.765
						c-2.587,1.134-4.814,3.38-4.814,3.38L273.962,263.649z"/>
					
						<path style="fill:none;stroke:#DD8D6B;stroke-width:0.75;stroke-linecap:round;stroke-linejoin:round;stroke-miterlimit:10;" d="
						M303.719,257.677c0,0-6.617-3.087-11.948-2.989"/>
					
						<path style="fill:none;stroke:#DD8D6B;stroke-width:0.75;stroke-linecap:round;stroke-linejoin:round;stroke-miterlimit:10;" d="
						M309.436,262.077c0,0,0.316,2.103-11.691-1.893c0,0-2.255,5.558-5.974,8.037"/>
				</g>
			</g>
			<g>
				<rect x="184.325" y="293.713" style="fill:#BBE4EA;" width="238.949" height="7.868"/>
				<rect x="184.325" y="297.647" style="opacity:0.6;fill:#1D1D1B;" width="238.949" height="3.934"/>
				<g>
					<polygon style="fill:#BBE4EA;" points="178.735,455.849 220.561,301.581 205.239,301.581 					"/>
					<polygon style="fill:#BBE4EA;" points="402.362,301.581 428.866,455.849 387.039,301.581 					"/>
				</g>
				<g style="opacity:0.6;">
					<g>
						<polygon style="fill:#1D1D1B;" points="178.735,455.849 220.561,301.581 214.399,301.581 						"/>
						<polygon style="fill:#1D1D1B;" points="394.117,301.581 428.866,455.849 387.039,301.581 						"/>
					</g>
				</g>
			</g>
			<g>
				<path style="fill:#717F87;" d="M417.77,239.739l-23.423,53.972H313.59l3.27-7.86l20.611-47.194
					c0.513-1.255,1.74-2.07,3.096-2.07h75.096C417.294,236.588,418.393,238.237,417.77,239.739z"/>
				<polygon style="fill:#717F87;" points="324.83,285.852 324.83,293.711 284.845,293.711 289.425,285.852 				"/>
				<path style="fill:#5F7077;" d="M417.77,239.739h-77.029l-20.006,46.113l-3.252,7.86h-32.638l4.58-7.86h27.435l20.611-47.194
					c0.513-1.255,1.74-2.07,3.096-2.07h75.096C417.294,236.588,418.393,238.237,417.77,239.739z"/>
				<circle style="fill:#5F7077;" cx="370.616" cy="261.027" r="5.423"/>
				<path style="opacity:0.3;fill:#FFFFFF;" d="M374.665,257.406c-0.06-0.079-0.184-0.013-0.136,0.079
					c1.042,2.009,0.939,4.243-0.447,6.092c-1.158,1.544-2.462,1.761-4.588,2.1c-0.149,0.024-0.228,0.313-0.048,0.366
					c1.783,0.528,4.257-0.189,5.402-1.878C376.319,261.998,376.21,259.434,374.665,257.406z"/>
			</g>
		</g>
		<g>
			<g>
				<g>
					<polygon style="fill:#F6AD84;" points="121.405,441.216 123.024,450.773 141.614,450.773 143.009,433.441 122.56,434.391 					
						"/>
					<path style="fill:#717F87;" d="M167.885,451.634c-2.629-1.255-23.533-8.116-25.273-14.885c0,0-5.121,9.215-11.798,8.693
						c-6.669-0.513-9.408-4.223-9.408-4.223s-1.31,5.881-1.053,13.026c0.037,1.264,0.137,2.565,0.293,3.875
						c0,0,28.873,1.942,49.182,0.623c0,0,0.174-1.475,0.018-3.115C169.69,454.016,169.204,452.257,167.885,451.634z"/>
					<path style="fill:#5F7077;" d="M169.827,458.743c-20.308,1.319-49.182-0.623-49.182-0.623c-0.156-1.31-0.257-2.611-0.293-3.875
						c29.02,2.492,43.236,1.997,49.493,1.383C170.001,457.268,169.827,458.743,169.827,458.743z"/>
					
						<line style="fill:none;stroke:#5F7077;stroke-linecap:round;stroke-linejoin:round;stroke-miterlimit:10;" x1="150.168" y1="444.052" x2="149.022" y2="445.906"/>
					
						<line style="fill:none;stroke:#5F7077;stroke-linecap:round;stroke-linejoin:round;stroke-miterlimit:10;" x1="153.027" y1="445.697" x2="151.881" y2="447.551"/>
					
						<line style="fill:none;stroke:#5F7077;stroke-linecap:round;stroke-linejoin:round;stroke-miterlimit:10;" x1="156.077" y1="447.147" x2="154.931" y2="449.001"/>
				</g>
				<g>
					<path style="fill:#717F87;" d="M42.792,454.63c-0.595,2.327-0.641,3.792-0.641,3.792c12.101,3.032,27.069,0,27.069,0
						c0.357-0.916,0.687-2.079,0.989-3.389c1.383-6.11,2.089-15.279,1.53-16.113l-17.243-0.779c-0.731,2.62-1.458,5.245-2.177,7.878
						c0.718-2.633,1.446-5.258,2.177-7.878l-1.416-0.064C46.392,444.132,43.791,450.654,42.792,454.63z"/>
					<path style="fill:#5F7077;" d="M70.209,455.033c-0.302,1.31-0.632,2.473-0.989,3.389c0,0-14.968,3.032-27.069,0
						c0,0,0.046-1.466,0.641-3.792C54.664,457.259,64.566,456.169,70.209,455.033z"/>
					<path style="fill:none;stroke:#5F7077;stroke-linecap:round;stroke-linejoin:round;stroke-miterlimit:10;" d="M60.444,447.551
						c0,0-3.15-1.472-6.578-0.405"/>
					<path style="fill:none;stroke:#5F7077;stroke-linecap:round;stroke-linejoin:round;stroke-miterlimit:10;" d="M61.326,444.697
						c0,0-3.15-1.472-6.578-0.405"/>
				</g>
				<g>
					<path style="fill:#457799;" d="M113.693,249.989c5.496,3.664-2.748,16.488,3.664,19.237
						c14.656,6.412,36.641,7.328,44.885-3.664c2.51-3.248,5.236-6.086,8.128-8.598c-0.348-11.805-0.746-20.128-0.746-20.128
						l-73.534,5.232c-2.086,42.465-48.697,196.669-48.697,196.669c2.075,1.299,4.106,2.315,6.075,3.105
						c16.267-58.903,35.746-114.554,46.484-177.196C100.868,257.318,106.365,245.409,113.693,249.989z"/>
					<path style="fill:#3B6582;" d="M162.242,265.562c-8.244,10.992-30.229,10.076-44.885,3.664
						c-6.412-2.748,1.832-15.572-3.664-19.237c-7.328-4.58-12.824,7.328-13.74,14.656c-10.739,62.642-30.218,118.293-46.484,177.196
						c14.058,5.638,24.888-0.452,24.888-0.452c11.572-19.927,53.793-152.542,53.793-152.542
						c1.876,36.135-12.197,153.179-12.197,153.179c19.383,3.73,28.348-0.637,28.348-0.637s18.502-92.289,21.324-118.944
						c1.762-16.64,1.324-45.868,0.746-65.482C167.478,259.476,164.752,262.314,162.242,265.562z"/>
					<path style="opacity:0.3;fill:#1D1D1B;" d="M113.693,249.989c5.496,3.664-2.748,16.488,3.664,19.237
						c14.656,6.412,36.641,7.328,44.885-3.664c2.51-3.248,5.236-6.086,8.128-8.598c-0.348-11.805-0.746-20.128-0.746-20.128
						l-73.534,5.232c-2.086,42.465-48.697,196.669-48.697,196.669c2.075,1.299,4.106,2.315,6.075,3.105
						c16.267-58.903,35.746-114.554,46.484-177.196C100.868,257.318,106.365,245.409,113.693,249.989z"/>
					<path style="fill:none;stroke:#23526D;stroke-linecap:round;stroke-linejoin:round;stroke-miterlimit:10;" d="M114.4,244.076
						c-1.978,7.361-8.04,13.48-15.382,15.527"/>
					<path style="fill:none;stroke:#23526D;stroke-linecap:round;stroke-linejoin:round;stroke-miterlimit:10;" d="M101.003,244.148
						c0,0-22.624,112.573-50.892,194.59"/>
					<path style="fill:none;stroke:#23526D;stroke-linecap:round;stroke-linejoin:round;stroke-miterlimit:10;" d="M132.148,288.849
						c0,0,4.768,36.974,2.804,55.245s-13.547,97.122-13.547,97.122"/>
				</g>
			</g>
			<g>
				<path style="fill:#F6AD84;" d="M159.905,131.375c0,0-4.27,8.42-2.272,12.845c1.998,4.424-1.537,21.996-19.964,17.42
					s-3.854-21.416-3.854-21.416s4.897-20.405,4.439-26.258C137.796,108.112,159.905,131.375,159.905,131.375z"/>
				<path style="opacity:0.3;fill:#1D1D1B;" d="M157.633,144.219c-1.998-4.424,2.271-12.845,2.271-12.845
					s-22.109-23.263-21.651-17.41c0.178,2.278-0.455,6.76-1.295,11.386c1.864,10.284,7.366,19.552,17.955,22.044
					c1.058,0.282,2.116,0.542,3.173,0.79C158.207,146.525,158.034,145.106,157.633,144.219z"/>
				<path style="fill:#F6AD84;" d="M181.551,103.647c0.036,0.767-16.283,41.021-33.799,32.383s-5.669-40.285-5.669-40.285
					s6.838-18.016,24.269-10.155S181.551,103.647,181.551,103.647z"/>
				<path style="opacity:0.3;fill:#1D1D1B;" d="M154.914,91.517c4.688,9.376,14.047,15.404,24.655,16.978
					c1.281-2.8,1.99-4.687,1.982-4.847c0,0,2.231-10.196-15.2-18.057c-17.431-7.861-24.269,10.155-24.269,10.155
					s-1.336,3.578-2.447,8.648C145.964,102.747,151.685,98.379,154.914,91.517z"/>
				<path style="fill:#292935;" d="M161.525,103.242c-1.221-0.094-4.148-0.971-4.878-2.872c-0.152-0.396,0.156-0.829,0.581-0.821
					c0.916,0.018,3.512,0.788,4.838,2.722C162.361,102.7,162.045,103.282,161.525,103.242z"/>
				<path style="fill:#292935;" d="M171.738,105.969c1.119,0.499,3.835,1.116,5.383-0.207c0.323-0.276,0.258-0.804-0.119-0.999
					c-0.814-0.421-3.19-0.974-5.277,0.094C171.261,105.095,171.262,105.757,171.738,105.969z"/>
				
					<ellipse transform="matrix(0.4817 -0.8763 0.8763 0.4817 -13.744 195.677)" style="fill:#102237;" cx="158.553" cy="109.458" rx="1.77" ry="0.838"/>
				
					<ellipse transform="matrix(0.4817 -0.8763 0.8763 0.4817 -8.8255 208.2147)" style="fill:#102237;" cx="171.612" cy="111.568" rx="1.77" ry="0.838"/>
				
					<path style="fill:none;stroke:#DD8D6B;stroke-width:0.75;stroke-linecap:round;stroke-linejoin:round;stroke-miterlimit:10;" d="
					M167.026,109.458c0,0-0.246,9.145-1.415,10.437s-4.307,0-4.307,0"/>
				<path style="fill:#F2826E;" d="M159.1,126.646c-0.275,0.687-0.843,1.163-1.566,1.447c-2.162,0.843-5.753-0.009-7.64-1.997
					c-2.528-2.657-3.408-5.524-2.116-8.455c0.284-0.65,0.586-1.108,0.889-1.42c0.238-0.266,0.486-0.431,0.705-0.531
					c0.55-0.247,1.127,0.266,1.008,0.852c-0.11,0.531-0.128,1.237,0.266,1.85C151.396,119.547,160.19,123.917,159.1,126.646z"/>
				<path style="fill:#062A44;" d="M156.608,77.966c0,0,13.27-3.788,23.785,0.81c12.621,5.519,13.494,14.979,11.875,18.487
					s-9.041,11.37-24.559,4.133S147.666,84.038,156.608,77.966z"/>
				<path style="fill:#062A44;" d="M154.919,75.253c6.115,2.303,1.186,12.921-5.292,20.747c-6.477,7.827-9.752,5.96-9.752,5.96
					s-4.923-6.093,0.899-17.766C146.067,73.582,151.004,73.779,154.919,75.253z"/>
				<path style="opacity:0.3;fill:#1D1D1B;" d="M189.723,96.097c-11.908,6.412-30.229,2.748-34.809-10.992
					c-4.767,3.972-10.223,13.448-16.966,10.517c0.191,4.19,1.927,6.339,1.927,6.339s3.274,1.867,9.752-5.96
					c1.45-1.752,2.822-3.645,4.01-5.553c2.292,3.812,7.053,7.675,14.072,10.948c15.518,7.237,22.94-0.625,24.559-4.133
					c0.417-0.903,0.666-2.202,0.595-3.724C191.998,94.445,190.958,95.273,189.723,96.097z"/>
				<path style="fill:#FFFFFF;" d="M159.1,126.646c-0.275,0.687-0.843,1.163-1.566,1.447c-2.336-2.125-6.055-6.522-6.44-7.099
					c-0.962-1.502-1.786-3.096-2.428-4.773c0.238-0.266,0.486-0.431,0.705-0.531c0.55-0.247,1.127,0.266,1.008,0.852
					c-0.11,0.531-0.128,1.237,0.266,1.85C151.396,119.547,160.19,123.917,159.1,126.646z"/>
				<g>
					<path style="fill:#F6AD84;" d="M141.523,103.619c-2.286-3.984-2.562-4.775-4.857-4.74s-6.216,9.851,2.807,12.912
						L141.523,103.619z"/>
					<path style="opacity:0.3;fill:#1D1D1B;" d="M136.201,104.627c0.083-0.984,0.563-1.974,1.412-2.479
						c0.253-0.151,0.572-0.255,0.839-0.13c0.224,0.105,0.351,0.343,0.453,0.568c0.24,0.525,0.437,1.071,0.588,1.628
						c0.172,0.635,0.284,1.302,0.165,1.949c-0.119,0.647-0.505,1.272-1.105,1.541c-0.564,0.253-1.494,0.098-1.864-0.438
						C136.223,106.588,136.134,105.414,136.201,104.627z"/>
					
						<path style="fill:none;stroke:#DD8D6B;stroke-width:0.75;stroke-linecap:round;stroke-linejoin:round;stroke-miterlimit:10;" d="
						M136.169,100.743c0.995-0.017,1.901,0.647,2.446,1.48c0.544,0.833,0.792,1.819,1.032,2.785"/>
					
						<path style="fill:none;stroke:#DD8D6B;stroke-width:0.75;stroke-linecap:round;stroke-linejoin:round;stroke-miterlimit:10;" d="
						M138.21,101.871c-1.108,0.496-1.876,1.671-1.886,2.885"/>
				</g>
			</g>
			<g>
				<path style="fill:#EC6759;" d="M166.108,148.823c15.279,16.818,8.739,59.203,8.244,69.096
					c-0.568,11.441-9.49,20.757-9.49,20.757l1.713,3.389l4.8,9.472c7.282-3.884,12.229-3.435,17.945-18.824
					c5.725-15.389,4.544-65.899-1.969-76.745c-1.914-3.197-5.313-5.634-9.16-7.475c-8.583-4.131-19.383-5.304-20.775-5.441
					c-0.101-0.009-0.156-0.018-0.156-0.018C160.813,144.188,163.735,146.194,166.108,148.823z"/>
				<path style="fill:#EC6759;" d="M171.018,242.066c0,0,12.66-59.368,10.626-77.643c-0.824-7.411-4.992-12.33-9.655-15.554
					c-6.284-4.351-13.456-5.634-14.574-5.817c-0.101-0.009-0.156-0.018-0.156-0.018s-0.724,2.134-2.721,4.25
					c-2.006,2.125-5.295,4.232-10.415,4.122c-10.223-0.211-10.305-11.185-10.305-11.185c-12.064-0.971-19.03,23.902-34.236,53.416
					c-15.206,29.514-3.495,48.428-3.495,48.428H171.018z"/>
				<path style="opacity:0.3;fill:#1D1D1B;" d="M172.358,184.278c-6.526,34.495-43.155,56.577-77.095,56.188
					c0.484,1.045,0.824,1.6,0.824,1.6h69.651C171.568,223.316,174.039,203.618,172.358,184.278z"/>
				<g>
					<path style="fill:#717F87;" d="M119.82,264.68h33.212c1.325,0,2.512-0.818,2.984-2.056l16.756-43.958
						c0.377-0.989-0.353-2.048-1.411-2.048h-33.499c-1.09,0-2.067,0.673-2.455,1.692l-16.932,44.419
						C118.116,263.67,118.812,264.68,119.82,264.68z"/>
					<path style="opacity:0.3;fill:#1D1D1B;" d="M171.361,216.617h-3.908c-3.558,25.487-22.955,45.737-48.347,47.87
						c0.208,0.12,0.449,0.192,0.714,0.192h33.212c1.325,0,2.512-0.818,2.984-2.056l16.756-43.958
						C173.149,217.677,172.419,216.617,171.361,216.617z"/>
					<polygon style="fill:#717F87;" points="146.198,215.727 164.884,215.727 163.052,219.674 144.366,219.674 					"/>
					<polygon style="opacity:0.3;fill:#1D1D1B;" points="146.198,215.727 164.884,215.727 163.052,219.674 144.366,219.674 					"/>
				</g>
				<path style="fill:#F6AD84;" d="M157.752,247.896c0,0-10.861-0.04-10.565,2.045c0.296,2.086,11.199,2.451,11.199,2.451
					s-8.186,1.196-7.973,3.37c0.076,0.78,17.542,0.929,23.252-6.222c5.128-6.421-6.639-9.331-6.639-9.331s-17.457-2.92-18.291-0.695
					c-0.834,2.225,9.146,3.893,9.146,3.893s-11.516-1.738-11.788,0C145.626,246.398,157.752,247.896,157.752,247.896z"/>
				<path style="opacity:0.3;fill:#1D1D1B;" d="M178.19,148.494c-2.208,0.211-4.278,0.321-6.201,0.376
					c-2.144,0.055-4.104,0.027-5.881-0.046c-7.136-0.302-11.194-1.429-11.194-1.429l-0.376-0.11c1.997-2.116,2.721-4.25,2.721-4.25
					s0.055,0.009,0.156,0.018C158.807,143.19,169.607,144.362,178.19,148.494z"/>
				<g>
					<path style="fill:#F6AD84;" d="M143.512,187.477c0.648,0.085,1.313,0.224,1.844,0.605c0.531,0.381,0.897,1.06,0.733,1.693
						c-0.228,0.886-1.28,1.24-2.183,1.39c-2.359,0.392-4.786,0.377-7.14-0.046c-0.672-0.121-2.174-0.467-2.359-1.295
						c-0.195-0.872,1.717-1.373,2.378-1.611C138.928,187.445,141.254,187.181,143.512,187.477z"/>
					<path style="opacity:0.3;fill:#1D1D1B;" d="M143.512,187.477c0.648,0.085,1.313,0.224,1.844,0.605
						c0.531,0.381,0.897,1.06,0.733,1.693c-0.228,0.886-1.28,1.24-2.183,1.39c-2.359,0.392-4.786,0.377-7.14-0.046
						c-0.672-0.121-2.174-0.467-2.359-1.295c-0.195-0.872,1.717-1.373,2.378-1.611C138.928,187.445,141.254,187.181,143.512,187.477
						z"/>
					<polygon style="fill:#717F87;" points="135.808,178.164 157.465,207.547 157.465,210.591 155.007,209.303 133.811,179.772 
											"/>
					<path style="opacity:0.3;fill:#1D1D1B;" d="M135.578,178.349l-1.767,1.422l21.196,29.531l2.458,1.288v-3.044l-3.459-4.693
						C146.189,197.601,140.899,186.565,135.578,178.349z"/>
					<path style="fill:#F6AD84;" d="M118.386,201.449c0,0,12.156-12.845,17.995-12.987c5.839-0.143,14.687,0.999,14.687,3.711
						c0,2.712,0,2.712,0,2.712s0,9.277-3.283,10.989c-3.283,1.713-10.957,0.285-13.97,1.284c-3.013,0.999-11.148,5.423-11.148,5.423
						L118.386,201.449z"/>
					
						<path style="fill:none;stroke:#DD8D6B;stroke-width:0.75;stroke-linecap:round;stroke-linejoin:round;stroke-miterlimit:10;" d="
						M150.737,194.371c-2.407-0.849-4.939-1.345-7.489-1.466"/>
					
						<path style="fill:none;stroke:#DD8D6B;stroke-width:0.75;stroke-linecap:round;stroke-linejoin:round;stroke-miterlimit:10;" d="
						M150.554,197.694c-1.716-0.437-3.511-0.567-5.272-0.38"/>
					
						<path style="fill:none;stroke:#DD8D6B;stroke-width:0.75;stroke-linecap:round;stroke-linejoin:round;stroke-miterlimit:10;" d="
						M149.942,201.159c-1.412-0.145-2.85-0.035-4.224,0.322"/>
				</g>
				
					<path style="fill:none;stroke:#D34439;stroke-width:0.75;stroke-linecap:round;stroke-linejoin:round;stroke-miterlimit:10;" d="
					M130.998,142.137c0.057,4.616,2.795,9.054,6.789,11.368c3.995,2.314,9.088,2.512,13.342,0.718
					c4.254-1.794,7.619-5.482,9.232-9.808"/>
				<path style="fill:#EC6759;" d="M128.345,212.581l-7.673-15.298l-26.942,13.008c0,0,26.148-65.875,40.084-70.068
					c0,0-15.44-0.305-20.747,2.81c-13.946,8.188-43.889,44.009-40.195,82.032C76.567,263.088,128.345,212.581,128.345,212.581z"/>
				<path style="opacity:0.3;fill:#1D1D1B;" d="M84.01,220.598c-7.563-14.438-4.527-31.282,2.015-47.163
					c-8.598,14.637-14.975,32.862-13.152,51.629c3.694,38.022,55.472-12.484,55.472-12.484l-1.21-2.412
					C112.526,220.601,92.782,239.019,84.01,220.598z"/>
				<path style="fill:none;stroke:#D34439;stroke-linecap:round;stroke-linejoin:round;stroke-miterlimit:10;" d="M128.345,212.581
					c0,0-19.273,18.919-35.401,24.255"/>
				
					<line style="fill:none;stroke:#D34439;stroke-linecap:round;stroke-linejoin:round;stroke-miterlimit:10;" x1="120.673" y1="197.283" x2="93.731" y2="210.291"/>
				<path style="fill:none;stroke:#D34439;stroke-linecap:round;stroke-linejoin:round;stroke-miterlimit:10;" d="M170.878,177.673
					c0,0,3.203,18.403-0.508,35.308"/>
				
					<path style="fill:none;stroke:#D34439;stroke-width:0.75;stroke-linecap:round;stroke-linejoin:round;stroke-miterlimit:10;" d="
					M170.37,240.648c0,0,8.033,3.529,3.295,8.892"/>
				
					<line style="fill:none;stroke:#D34439;stroke-width:0.75;stroke-linecap:round;stroke-linejoin:round;stroke-miterlimit:10;" x1="118.38" y1="200.515" x2="124.537" y2="213.661"/>
				
					<path style="fill:none;stroke:#D34439;stroke-width:0.75;stroke-linecap:round;stroke-linejoin:round;stroke-miterlimit:10;" d="
					M171.266,237.842c0,0,8.624,3.048,5.464,9.424"/>
				<path style="fill:none;stroke:#D34439;stroke-linecap:round;stroke-linejoin:round;stroke-miterlimit:10;" d="M98.829,205.786
					c3.586-10.099,8.275-19.806,13.955-28.894"/>
			</g>
		</g>
	</g>
</g>
</svg>
