<svg xmlns="http://www.w3.org/2000/svg" viewBox="0 0 312.25 40.36"><defs><style>.cls-1,.cls-2{fill:#102845;}.cls-2{font-size:16.48px;font-family:Inter-Regular, Inter;}.cls-3{letter-spacing:-0.01em;}</style></defs><g id="Layer_2" data-name="Layer 2"><g id="Layer_1-2" data-name="Layer 1"><path class="cls-1" d="M21.7,30.66A11,11,0,0,1,21,23.92H28.5a7.2,7.2,0,0,0-1.78-5.28c-1.55-1.73-4-3-7.29-3.72l-2.87-.69A10,10,0,0,1,13,12.84a2.19,2.19,0,0,1-.94-2.42,3.54,3.54,0,0,1,1.63-2.37,6.78,6.78,0,0,1,3.83-.92,5.25,5.25,0,0,1,3.62,1,3.49,3.49,0,0,1,1,3H24A.88.88,0,0,1,24,11a11.17,11.17,0,0,1,2.7-5.7,13.42,13.42,0,0,1,1.7-1.58,9,9,0,0,0-2.87-2.19A15.22,15.22,0,0,0,18.69.15a19.17,19.17,0,0,0-7.3,1.36A14.51,14.51,0,0,0,5.92,5.3,11.17,11.17,0,0,0,3.22,11c-.42,2.64.1,4.74,1.58,6.28a13.08,13.08,0,0,0,6.55,3.38l3.49.85a11.15,11.15,0,0,1,4,1.53,2.25,2.25,0,0,1,1,2.36A3.72,3.72,0,0,1,18,28a7.67,7.67,0,0,1-4.16,1,6.51,6.51,0,0,1-4.3-1.28,4.05,4.05,0,0,1-1.24-3.81H.2a11,11,0,0,0,.73,6.74,8.54,8.54,0,0,0,4.41,4A18.6,18.6,0,0,0,12.75,36q6.53,0,10.65-2.79l.17-.13A8.1,8.1,0,0,1,21.7,30.66Z"/><path class="cls-1" d="M34.46,8.05a6.76,6.76,0,0,1,3.83-.92,5.27,5.27,0,0,1,3.62,1,3.49,3.49,0,0,1,1,3H51a9.43,9.43,0,0,0-.7-5.79,8.53,8.53,0,0,0-4-3.85A15.22,15.22,0,0,0,39.46.15a19.17,19.17,0,0,0-7.3,1.36,15,15,0,0,0-3.77,2.21,8.28,8.28,0,0,1,1.14,1.66,9.36,9.36,0,0,1,.7,5.79H24a7,7,0,0,0,1.6,6.11,13.08,13.08,0,0,0,6.55,3.38l3.49.85a11.15,11.15,0,0,1,4,1.53,2.25,2.25,0,0,1,1,2.36A3.72,3.72,0,0,1,38.73,28a7.67,7.67,0,0,1-4.16,1,6.51,6.51,0,0,1-4.3-1.28A4.05,4.05,0,0,1,29,23.92H28.5a10,10,0,0,1-.14,1.5,11.27,11.27,0,0,1-4.79,7.64,9.31,9.31,0,0,0,2.54,1.6A18.58,18.58,0,0,0,33.51,36q6.54,0,10.66-2.79a11.3,11.3,0,0,0,5-7.77,7.72,7.72,0,0,0-1.64-6.78Q45.15,16,40.2,14.92l-2.87-.69a10,10,0,0,1-3.56-1.39,2.19,2.19,0,0,1-.94-2.42A3.54,3.54,0,0,1,34.46,8.05Z"/><path class="cls-1" d="M64.16.63,58.37,35.54H49.93L55.72.63Z"/><path class="cls-1" d="M74.81,35.54H61.71L67.51.63h12.7a16.79,16.79,0,0,1,8.88,2.16,11.74,11.74,0,0,1,5,6.16,18.67,18.67,0,0,1,.55,9.56,22,22,0,0,1-3.56,9.17,17.6,17.6,0,0,1-6.83,5.84A21.28,21.28,0,0,1,74.81,35.54Zm-3.46-7.19h4a10.73,10.73,0,0,0,7.26-2.46q2.85-2.45,3.79-8.25c.61-3.67.28-6.22-1-7.66S82,7.82,79,7.82h-4.2Z"/><text class="cls-2" transform="translate(104.39 14.23)">Student Submission<tspan x="0" y="19.78">In</tspan><tspan class="cls-3" x="14" y="19.78">t</tspan><tspan x="19.9" y="19.78">egrity Diagnosis Sys</tspan><tspan class="cls-3" x="178.04" y="19.78">t</tspan><tspan x="183.94" y="19.78">em</tspan></text></g></g></svg>