<svg xmlns="http://www.w3.org/2000/svg" viewBox="0 0 310.99 37.42"><defs><style>.cls-1{fill:#102845;}</style></defs><g id="Layer_2" data-name="Layer 2"><g id="Layer_1-2" data-name="Layer 1"><path class="cls-1" d="M21.7,30.5A11,11,0,0,1,21,23.76H28.5a7.18,7.18,0,0,0-1.78-5.27c-1.55-1.74-4-3-7.29-3.73l-2.87-.68A10,10,0,0,1,13,12.68a2.19,2.19,0,0,1-.94-2.42,3.58,3.58,0,0,1,1.63-2.37A6.86,6.86,0,0,1,17.52,7,5.2,5.2,0,0,1,21.14,8a3.47,3.47,0,0,1,1,3H24a1,1,0,0,1,0-.17,11.14,11.14,0,0,1,2.7-5.69,12.73,12.73,0,0,1,1.7-1.58,9,9,0,0,0-2.87-2.2A15.36,15.36,0,0,0,18.69,0a19.17,19.17,0,0,0-7.3,1.35,14.53,14.53,0,0,0-5.47,3.8,11.14,11.14,0,0,0-2.7,5.69c-.42,2.65.1,4.75,1.58,6.29a13.16,13.16,0,0,0,6.55,3.38l3.49.85a11.36,11.36,0,0,1,4,1.52,2.26,2.26,0,0,1,1,2.36A3.72,3.72,0,0,1,18,27.85a7.67,7.67,0,0,1-4.16,1,6.46,6.46,0,0,1-4.3-1.29,4.05,4.05,0,0,1-1.24-3.81H.2A11,11,0,0,0,.93,30.5a8.56,8.56,0,0,0,4.41,4,18.6,18.6,0,0,0,7.41,1.32q6.53,0,10.65-2.8l.17-.12A8,8,0,0,1,21.7,30.5Z"/><path class="cls-1" d="M34.46,7.89A6.84,6.84,0,0,1,38.29,7,5.22,5.22,0,0,1,41.91,8a3.47,3.47,0,0,1,1,3H51a9.45,9.45,0,0,0-.7-5.79,8.58,8.58,0,0,0-4-3.85A15.36,15.36,0,0,0,39.46,0a19.17,19.17,0,0,0-7.3,1.35,15.36,15.36,0,0,0-3.77,2.22,8.51,8.51,0,0,1,1.14,1.65,9.38,9.38,0,0,1,.7,5.79H24a7,7,0,0,0,1.6,6.12,13.16,13.16,0,0,0,6.55,3.38l3.49.85a11.36,11.36,0,0,1,4,1.52,2.26,2.26,0,0,1,1,2.36,3.72,3.72,0,0,1-1.84,2.61,7.67,7.67,0,0,1-4.16,1,6.46,6.46,0,0,1-4.3-1.29A4.05,4.05,0,0,1,29,23.76H28.5a10,10,0,0,1-.14,1.5,11.29,11.29,0,0,1-4.79,7.65,9.55,9.55,0,0,0,2.54,1.6,18.58,18.58,0,0,0,7.4,1.32q6.54,0,10.66-2.8a11.26,11.26,0,0,0,5-7.77,7.71,7.71,0,0,0-1.64-6.77q-2.34-2.61-7.29-3.73l-2.87-.68a10,10,0,0,1-3.56-1.4,2.19,2.19,0,0,1-.94-2.42A3.58,3.58,0,0,1,34.46,7.89Z"/><path class="cls-1" d="M64.16.48,58.37,35.39H49.93L55.72.48Z"/><path class="cls-1" d="M74.81,35.39H61.71L67.51.48h12.7a16.88,16.88,0,0,1,8.88,2.15,11.77,11.77,0,0,1,5,6.17,18.66,18.66,0,0,1,.55,9.56,22.06,22.06,0,0,1-3.56,9.17,17.68,17.68,0,0,1-6.83,5.84A21.42,21.42,0,0,1,74.81,35.39Zm-3.46-7.2h4a10.73,10.73,0,0,0,7.26-2.45q2.85-2.46,3.79-8.25c.61-3.67.28-6.23-1-7.66S82,7.67,79,7.67h-4.2Z"/><path class="cls-1" d="M112.4,5.09a1.85,1.85,0,0,0-.86-1.38,3.26,3.26,0,0,0-1.84-.49,3,3,0,0,0-1.92.56,1.74,1.74,0,0,0-.72,1.43,1.43,1.43,0,0,0,.39,1,3,3,0,0,0,.94.61,7.8,7.8,0,0,0,1,.34l1.21.32c.32.09.66.2,1,.34a5.1,5.1,0,0,1,1.1.59,3.08,3.08,0,0,1,.88,1,2.75,2.75,0,0,1,.34,1.43,3.14,3.14,0,0,1-.5,1.75A3.53,3.53,0,0,1,112,13.83a5.38,5.38,0,0,1-2.35.46,4.73,4.73,0,0,1-3.06-.91A3.23,3.23,0,0,1,105.33,11h1.49a1.9,1.9,0,0,0,.46,1.12,2.58,2.58,0,0,0,1,.66,4.12,4.12,0,0,0,1.33.21,4,4,0,0,0,1.5-.27,2.49,2.49,0,0,0,1-.76,1.8,1.8,0,0,0,.39-1.15,1.41,1.41,0,0,0-.33-1,2.61,2.61,0,0,0-.88-.61,10.83,10.83,0,0,0-1.18-.41l-1.47-.42a5.52,5.52,0,0,1-2.23-1.15,2.56,2.56,0,0,1-.82-2,3,3,0,0,1,.55-1.76,3.68,3.68,0,0,1,1.48-1.17,5.35,5.35,0,0,1,4.13,0,3.61,3.61,0,0,1,1.43,1.13,2.81,2.81,0,0,1,.56,1.62Z"/><path class="cls-1" d="M120.07,5.09V6.26h-1.92V11.5a1.7,1.7,0,0,0,.18.88.87.87,0,0,0,.44.39,1.85,1.85,0,0,0,.58.09l.37,0,.24-.05.28,1.24a3.33,3.33,0,0,1-.39.11,2.84,2.84,0,0,1-.64.06,2.79,2.79,0,0,1-1.15-.26,2.14,2.14,0,0,1-1.29-2.06V6.26h-1.35V5.09h1.35V2.94h1.38V5.09Z"/><path class="cls-1" d="M127.82,10.4V5.09h1.38v9h-1.38V12.56h-.09a3,3,0,0,1-1,1.16,2.84,2.84,0,0,1-1.69.48,2.77,2.77,0,0,1-2.08-.84,3.52,3.52,0,0,1-.82-2.56V5.09h1.38v5.62a2.2,2.2,0,0,0,.55,1.57,1.86,1.86,0,0,0,1.42.58,2.36,2.36,0,0,0,1.95-1.07A2.45,2.45,0,0,0,127.82,10.4Z"/><path class="cls-1" d="M135.13,14.27a3.54,3.54,0,0,1-2-.57,3.79,3.79,0,0,1-1.34-1.62,5.73,5.73,0,0,1-.49-2.47,5.65,5.65,0,0,1,.49-2.46,3.77,3.77,0,0,1,1.35-1.61,3.55,3.55,0,0,1,2-.57,2.85,2.85,0,0,1,1.39.29,2.64,2.64,0,0,1,.79.66q.27.36.42.6h.12V2.09h1.38v12h-1.34V12.7h-.16c-.1.16-.25.37-.43.62a2.77,2.77,0,0,1-.81.66A2.86,2.86,0,0,1,135.13,14.27Zm.18-1.24a2.2,2.2,0,0,0,1.92-1,4.31,4.31,0,0,0,.66-2.49,4.14,4.14,0,0,0-.66-2.44,2.18,2.18,0,0,0-1.92-.93,2.33,2.33,0,0,0-1.46.45A2.8,2.8,0,0,0,133,7.87a4.87,4.87,0,0,0-.29,1.71,4.91,4.91,0,0,0,.3,1.75,2.84,2.84,0,0,0,.88,1.24A2.28,2.28,0,0,0,135.31,13Z"/><path class="cls-1" d="M145.73,14.27a4.27,4.27,0,0,1-2.24-.58,3.79,3.79,0,0,1-1.44-1.62,5.39,5.39,0,0,1-.51-2.42,5.5,5.5,0,0,1,.51-2.43,4,4,0,0,1,1.41-1.65,3.8,3.8,0,0,1,2.13-.6,4.19,4.19,0,0,1,1.39.24,3.51,3.51,0,0,1,1.25.75,3.74,3.74,0,0,1,.89,1.39,5.94,5.94,0,0,1,.33,2.12v.58h-6.52a3.1,3.1,0,0,0,.82,2.21,2.68,2.68,0,0,0,2,.77,2.63,2.63,0,0,0,1.4-.36,2,2,0,0,0,.85-1.05l1.33.38a3,3,0,0,1-1.26,1.64A4.08,4.08,0,0,1,145.73,14.27Zm-2.8-5.41h5.12A2.72,2.72,0,0,0,147.38,7a2.24,2.24,0,0,0-1.79-.76,2.57,2.57,0,0,0-1.37.37,2.68,2.68,0,0,0-.91,1A3.06,3.06,0,0,0,142.93,8.86Z"/><path class="cls-1" d="M152.94,8.67v5.41h-1.38v-9h1.34v1.4H153a2.61,2.61,0,0,1,1-1.1A3,3,0,0,1,155.64,5a3,3,0,0,1,2.2.84,3.48,3.48,0,0,1,.84,2.56v5.71H157.3V8.46a2.35,2.35,0,0,0-.55-1.65,2,2,0,0,0-1.51-.6,2.26,2.26,0,0,0-1.64.64A2.43,2.43,0,0,0,152.94,8.67Z"/><path class="cls-1" d="M165.12,5.09V6.26H163.2V11.5a1.71,1.71,0,0,0,.17.88.87.87,0,0,0,.44.39,1.9,1.9,0,0,0,.58.09l.38,0,.23-.05.28,1.24a2.47,2.47,0,0,1-.39.11,2.84,2.84,0,0,1-.64.06,2.71,2.71,0,0,1-1.14-.26,2.21,2.21,0,0,1-.93-.76,2.24,2.24,0,0,1-.36-1.3V6.26h-1.36V5.09h1.36V2.94h1.38V5.09Z"/><path class="cls-1" d="M178.58,5.09a1.85,1.85,0,0,0-.86-1.38,3.25,3.25,0,0,0-1.83-.49,3,3,0,0,0-1.92.56,1.73,1.73,0,0,0-.73,1.43,1.39,1.39,0,0,0,.4,1,2.84,2.84,0,0,0,.93.61,7.8,7.8,0,0,0,1,.34l1.22.32c.31.09.66.2,1,.34a5.41,5.41,0,0,1,1.11.59,3.17,3.17,0,0,1,.87,1,2.75,2.75,0,0,1,.35,1.43,3.14,3.14,0,0,1-.51,1.75,3.53,3.53,0,0,1-1.48,1.25,5.34,5.34,0,0,1-2.34.46,4.76,4.76,0,0,1-3.07-.91A3.23,3.23,0,0,1,171.51,11H173a1.78,1.78,0,0,0,.46,1.12,2.47,2.47,0,0,0,1,.66,4.18,4.18,0,0,0,1.34.21,3.92,3.92,0,0,0,1.49-.27,2.6,2.6,0,0,0,1.05-.76,1.85,1.85,0,0,0,.38-1.15,1.41,1.41,0,0,0-.33-1,2.51,2.51,0,0,0-.88-.61,10.14,10.14,0,0,0-1.18-.41l-1.47-.42a5.52,5.52,0,0,1-2.23-1.15,2.56,2.56,0,0,1-.81-2,2.94,2.94,0,0,1,.54-1.76,3.68,3.68,0,0,1,1.48-1.17,5.35,5.35,0,0,1,4.13,0,3.61,3.61,0,0,1,1.43,1.13A2.74,2.74,0,0,1,180,5.09Z"/><path class="cls-1" d="M188,10.4V5.09h1.38v9H188V12.56h-.09a3,3,0,0,1-1,1.16,2.84,2.84,0,0,1-1.69.48,2.77,2.77,0,0,1-2.08-.84,3.52,3.52,0,0,1-.82-2.56V5.09h1.38v5.62a2.2,2.2,0,0,0,.55,1.57,1.86,1.86,0,0,0,1.41.58,2.36,2.36,0,0,0,2-1.07A2.45,2.45,0,0,0,188,10.4Z"/><path class="cls-1" d="M192.11,14.08v-12h1.38V6.52h.12q.15-.24.42-.6a2.41,2.41,0,0,1,.79-.66A2.85,2.85,0,0,1,196.21,5a3.57,3.57,0,0,1,2,.57,3.77,3.77,0,0,1,1.35,1.61,5.8,5.8,0,0,1,.49,2.46,5.88,5.88,0,0,1-.49,2.47,3.74,3.74,0,0,1-1.35,1.62,3.49,3.49,0,0,1-2,.57,2.9,2.9,0,0,1-1.39-.29,2.71,2.71,0,0,1-.8-.66c-.19-.25-.33-.46-.43-.62h-.17v1.38Zm1.36-4.5a4.31,4.31,0,0,0,.66,2.49A2.18,2.18,0,0,0,196,13a2.31,2.31,0,0,0,1.45-.46,2.84,2.84,0,0,0,.88-1.24,4.91,4.91,0,0,0,.29-1.75,4.65,4.65,0,0,0-.29-1.71,2.65,2.65,0,0,0-.87-1.21A2.31,2.31,0,0,0,196,6.21a2.21,2.21,0,0,0-1.92.93A4.21,4.21,0,0,0,193.47,9.58Z"/><path class="cls-1" d="M202.15,14.08v-9h1.34v1.4h.11a2.29,2.29,0,0,1,.91-1.12A2.81,2.81,0,0,1,206,5a2.66,2.66,0,0,1,1.48.4,2.79,2.79,0,0,1,.93,1.12h.09a2.71,2.71,0,0,1,1-1.11A3.2,3.2,0,0,1,211.21,5a2.68,2.68,0,0,1,2,.75A3.14,3.14,0,0,1,214,8.06v6h-1.38v-6A1.71,1.71,0,0,0,212,6.64a2.07,2.07,0,0,0-1.29-.43,1.86,1.86,0,0,0-1.46.57,2.07,2.07,0,0,0-.53,1.45v5.85h-1.4V7.92a1.65,1.65,0,0,0-.5-1.24,1.8,1.8,0,0,0-1.28-.47,1.88,1.88,0,0,0-1,.29,2.19,2.19,0,0,0-.75.79,2.36,2.36,0,0,0-.29,1.17v5.62Z"/><path class="cls-1" d="M217.18,3.59a1,1,0,0,1-.69-.27.91.91,0,0,1,0-1.33,1,1,0,0,1,.69-.27,1,1,0,0,1,.7.27.91.91,0,0,1,0,1.33A1,1,0,0,1,217.18,3.59Zm-.7,10.49v-9h1.38v9Z"/><path class="cls-1" d="M226.76,7.1l-1.24.35a2.47,2.47,0,0,0-.61-.87,1.85,1.85,0,0,0-1.34-.41,2.38,2.38,0,0,0-1.37.37,1.15,1.15,0,0,0-.55,1,1,1,0,0,0,.38.81,3.07,3.07,0,0,0,1.17.5l1.33.33c1.6.39,2.39,1.2,2.39,2.43a2.35,2.35,0,0,1-.44,1.39,3.15,3.15,0,0,1-1.23,1,4.57,4.57,0,0,1-1.84.35,4,4,0,0,1-2.28-.6A2.66,2.66,0,0,1,220,11.93l1.31-.33a1.89,1.89,0,0,0,2.09,1.45,2.59,2.59,0,0,0,1.53-.41,1.22,1.22,0,0,0,.57-1c0-.63-.44-1.05-1.33-1.26l-1.5-.35a3.58,3.58,0,0,1-1.81-.91,2.16,2.16,0,0,1-.58-1.55,2.26,2.26,0,0,1,.43-1.35,2.86,2.86,0,0,1,1.18-.91A4,4,0,0,1,223.57,5a3.38,3.38,0,0,1,2.1.59A3.18,3.18,0,0,1,226.76,7.1Z"/><path class="cls-1" d="M235.37,7.1l-1.24.35a2.35,2.35,0,0,0-.61-.87,1.83,1.83,0,0,0-1.33-.41,2.35,2.35,0,0,0-1.37.37,1.13,1.13,0,0,0-.55,1,1,1,0,0,0,.37.81,3.07,3.07,0,0,0,1.17.5l1.34.33c1.59.39,2.39,1.2,2.39,2.43a2.29,2.29,0,0,1-.45,1.39,3,3,0,0,1-1.23,1,4.54,4.54,0,0,1-1.84.35,4,4,0,0,1-2.27-.6,2.66,2.66,0,0,1-1.14-1.74l1.31-.33A1.88,1.88,0,0,0,232,13.05a2.6,2.6,0,0,0,1.54-.41,1.22,1.22,0,0,0,.57-1c0-.63-.45-1.05-1.34-1.26L231.28,10a3.62,3.62,0,0,1-1.82-.91,2.2,2.2,0,0,1-.57-1.55,2.2,2.2,0,0,1,.43-1.35,2.83,2.83,0,0,1,1.17-.91,4,4,0,0,1,1.7-.34,3.38,3.38,0,0,1,2.1.59A3.1,3.1,0,0,1,235.37,7.1Z"/><path class="cls-1" d="M238.32,3.59a1,1,0,0,1-.69-.27.91.91,0,0,1,0-1.33,1,1,0,0,1,.69-.27A1,1,0,0,1,239,2a.91.91,0,0,1,0,1.33A1,1,0,0,1,238.32,3.59Zm-.7,10.49v-9H239v9Z"/><path class="cls-1" d="M245.18,14.27a3.81,3.81,0,0,1-3.56-2.2,5.51,5.51,0,0,1-.51-2.44,5.53,5.53,0,0,1,.51-2.45,4,4,0,0,1,5.69-1.63,3.85,3.85,0,0,1,1.43,1.63,5.53,5.53,0,0,1,.51,2.45,5.51,5.51,0,0,1-.51,2.44,3.89,3.89,0,0,1-1.43,1.62A4,4,0,0,1,245.18,14.27Zm0-1.24a2.33,2.33,0,0,0,1.52-.48,2.73,2.73,0,0,0,.89-1.25,4.76,4.76,0,0,0,.28-1.67A4.86,4.86,0,0,0,247.59,8a2.82,2.82,0,0,0-.89-1.26,2.65,2.65,0,0,0-3,0A2.8,2.8,0,0,0,242.78,8a4.64,4.64,0,0,0-.29,1.68,4.55,4.55,0,0,0,.29,1.67,2.72,2.72,0,0,0,.88,1.25A2.34,2.34,0,0,0,245.18,13Z"/><path class="cls-1" d="M252.74,8.67v5.41h-1.38v-9h1.34v1.4h.11a2.61,2.61,0,0,1,1-1.1A3,3,0,0,1,255.44,5a3,3,0,0,1,2.2.84,3.48,3.48,0,0,1,.84,2.56v5.71H257.1V8.46a2.35,2.35,0,0,0-.55-1.65,2,2,0,0,0-1.51-.6,2.26,2.26,0,0,0-1.64.64A2.43,2.43,0,0,0,252.74,8.67Z"/><path class="cls-1" d="M107.29,21.87v12h-1.45v-12Z"/><path class="cls-1" d="M111.39,28.45v5.41H110v-9h1.33v1.4h.12a2.61,2.61,0,0,1,1-1.1,3.38,3.38,0,0,1,3.86.42,3.47,3.47,0,0,1,.84,2.55v5.72h-1.38V28.24a2.3,2.3,0,0,0-.55-1.65,1.94,1.94,0,0,0-1.51-.6,2.24,2.24,0,0,0-1.64.64A2.45,2.45,0,0,0,111.39,28.45Z"/><path class="cls-1" d="M123.56,24.87V26h-1.92v5.24a1.73,1.73,0,0,0,.18.88.81.81,0,0,0,.44.38,1.57,1.57,0,0,0,.58.1,1.9,1.9,0,0,0,.37,0l.24,0,.28,1.24a3,3,0,0,1-.4.11,2.81,2.81,0,0,1-.63,0,2.74,2.74,0,0,1-1.15-.25,2.26,2.26,0,0,1-.92-.76,2.17,2.17,0,0,1-.37-1.3V26H118.9V24.87h1.36V22.71h1.38v2.16Z"/><path class="cls-1" d="M129.32,34a4.24,4.24,0,0,1-2.24-.57,3.78,3.78,0,0,1-1.44-1.62,5.42,5.42,0,0,1-.51-2.42,5.57,5.57,0,0,1,.51-2.44,4,4,0,0,1,1.41-1.65,3.87,3.87,0,0,1,2.13-.59,4.45,4.45,0,0,1,1.39.23,3.5,3.5,0,0,1,1.24.76,3.57,3.57,0,0,1,.9,1.39,5.94,5.94,0,0,1,.33,2.12v.58h-6.52a3.14,3.14,0,0,0,.81,2.21,2.71,2.71,0,0,0,2,.76,2.62,2.62,0,0,0,1.4-.35,2,2,0,0,0,.85-1.05l1.33.37a3,3,0,0,1-1.26,1.65A4.1,4.1,0,0,1,129.32,34Zm-2.8-5.4h5.12a2.74,2.74,0,0,0-.67-1.9,2.27,2.27,0,0,0-1.79-.75,2.46,2.46,0,0,0-1.37.37,2.73,2.73,0,0,0-.91,1A3.15,3.15,0,0,0,126.52,28.64Z"/><path class="cls-1" d="M138.78,37.42a4.51,4.51,0,0,1-2.38-.55,3.93,3.93,0,0,1-1.3-1.26l1.1-.77c.13.16.29.35.48.56a2.32,2.32,0,0,0,.79.56,3,3,0,0,0,1.31.24,3,3,0,0,0,1.8-.53,1.92,1.92,0,0,0,.7-1.65V32.2h-.11c-.1.16-.25.36-.43.6a2.53,2.53,0,0,1-.8.64,3,3,0,0,1-1.39.28,3.71,3.71,0,0,1-2-.52,3.55,3.55,0,0,1-1.36-1.5,5.23,5.23,0,0,1-.5-2.38,5.46,5.46,0,0,1,.49-2.41,3.65,3.65,0,0,1,1.35-1.59,3.53,3.53,0,0,1,2-.57A2.87,2.87,0,0,1,140,25a2.34,2.34,0,0,1,.8.66,6.75,6.75,0,0,1,.43.6h.14V24.87h1.34v9.24a3.13,3.13,0,0,1-.53,1.89,3.05,3.05,0,0,1-1.4,1.07A5.34,5.34,0,0,1,138.78,37.42Zm-.05-4.94a2.3,2.3,0,0,0,1.91-.85,3.64,3.64,0,0,0,.67-2.34,4,4,0,0,0-.66-2.38,2.2,2.2,0,0,0-1.92-.92,2.33,2.33,0,0,0-1.46.45,2.59,2.59,0,0,0-.87,1.19,4.63,4.63,0,0,0-.29,1.66,3.78,3.78,0,0,0,.66,2.3A2.3,2.3,0,0,0,138.73,32.48Z"/><path class="cls-1" d="M145.19,33.86v-9h1.34v1.36h.09a2.19,2.19,0,0,1,.89-1.09,2.69,2.69,0,0,1,1.45-.41h.38l.35,0v1.4l-.32,0a3,3,0,0,0-.52,0,2.29,2.29,0,0,0-1.63.6,2,2,0,0,0-.64,1.51v5.69Z"/><path class="cls-1" d="M152,23.37a.94.94,0,0,1-.69-.28.84.84,0,0,1-.29-.66.86.86,0,0,1,.29-.66,1,1,0,0,1,1.38,0,.86.86,0,0,1,.29.66.84.84,0,0,1-.29.66A.94.94,0,0,1,152,23.37Zm-.7,10.49v-9h1.38v9Z"/><path class="cls-1" d="M159.15,24.87V26h-1.92v5.24a1.74,1.74,0,0,0,.17.88.84.84,0,0,0,.44.38,1.65,1.65,0,0,0,.58.1,2,2,0,0,0,.38,0l.23,0,.28,1.24a2.47,2.47,0,0,1-.39.11,2.91,2.91,0,0,1-.64,0,2.7,2.7,0,0,1-1.14-.25,2.29,2.29,0,0,1-.93-.76,2.24,2.24,0,0,1-.36-1.3V26h-1.36V24.87h1.36V22.71h1.38v2.16Z"/><path class="cls-1" d="M162.07,37.35a2.9,2.9,0,0,1-.62-.06,1.5,1.5,0,0,1-.38-.11l.35-1.22a2.07,2.07,0,0,0,1.26,0,1.91,1.91,0,0,0,.87-1.21l.3-.85-3.32-9H162L164.51,32h.09l2.48-7.16h1.5l-3.86,10.44A2.71,2.71,0,0,1,162.07,37.35Z"/><path class="cls-1" d="M178.93,33.86h-3.7v-12h3.86a5.86,5.86,0,0,1,3,.72,4.72,4.72,0,0,1,1.9,2.05,7.16,7.16,0,0,1,.66,3.2,7.12,7.12,0,0,1-.67,3.22A4.69,4.69,0,0,1,182,33.13,6.1,6.1,0,0,1,178.93,33.86Zm-2.25-1.29h2.16a4.1,4.1,0,0,0,3.31-1.27,5.16,5.16,0,0,0,1.09-3.46,5.14,5.14,0,0,0-1.07-3.43A4,4,0,0,0,179,23.16h-2.32Z"/><path class="cls-1" d="M187.59,23.37a.94.94,0,0,1-.69-.28.84.84,0,0,1-.29-.66.86.86,0,0,1,.29-.66,1,1,0,0,1,1.38,0,.86.86,0,0,1,.29.66.84.84,0,0,1-.29.66A.94.94,0,0,1,187.59,23.37Zm-.7,10.49v-9h1.38v9Z"/><path class="cls-1" d="M193.44,34.07a3.59,3.59,0,0,1-1.55-.33,2.55,2.55,0,0,1-1.51-2.43,2.35,2.35,0,0,1,.3-1.26,2.27,2.27,0,0,1,.81-.76,4.46,4.46,0,0,1,1.13-.41c.41-.09.83-.17,1.25-.22l1.33-.16a2.12,2.12,0,0,0,.75-.19.51.51,0,0,0,.23-.47v-.05a1.81,1.81,0,0,0-.47-1.34,1.91,1.91,0,0,0-1.42-.48,2.46,2.46,0,0,0-1.55.43,2.49,2.49,0,0,0-.79.93l-1.32-.47a3.17,3.17,0,0,1,.94-1.28,3.65,3.65,0,0,1,1.29-.65,5.24,5.24,0,0,1,2.38-.08,3.32,3.32,0,0,1,1.09.42,2.42,2.42,0,0,1,.88,1,3.44,3.44,0,0,1,.35,1.7v5.93h-1.38V32.64h-.07a2.55,2.55,0,0,1-.47.63,2.47,2.47,0,0,1-.87.56A3.26,3.26,0,0,1,193.44,34.07Zm.21-1.24a2.83,2.83,0,0,0,1.39-.32,2.28,2.28,0,0,0,.85-.84,2.05,2.05,0,0,0,.29-1.07V29.34a.82.82,0,0,1-.38.19c-.2.06-.42.1-.68.15l-.74.1-.59.07a6.09,6.09,0,0,0-1,.23,1.77,1.77,0,0,0-.75.46,1.19,1.19,0,0,0-.28.84,1.23,1.23,0,0,0,.53,1.08A2.32,2.32,0,0,0,193.65,32.83Z"/><path class="cls-1" d="M203.72,37.42a4.53,4.53,0,0,1-2.38-.55,3.8,3.8,0,0,1-1.29-1.26l1.1-.77c.12.16.28.35.47.56a2.32,2.32,0,0,0,.79.56,3,3,0,0,0,1.31.24,2.94,2.94,0,0,0,1.8-.53,1.92,1.92,0,0,0,.71-1.65V32.2h-.12c-.1.16-.25.36-.43.6a2.53,2.53,0,0,1-.8.64,3,3,0,0,1-1.39.28,3.65,3.65,0,0,1-2-.52,3.57,3.57,0,0,1-1.37-1.5,5.23,5.23,0,0,1-.5-2.38,5.46,5.46,0,0,1,.49-2.41,3.65,3.65,0,0,1,1.35-1.59,3.55,3.55,0,0,1,2-.57,2.92,2.92,0,0,1,1.4.29,2.4,2.4,0,0,1,.79.66,6.75,6.75,0,0,1,.43.6h.14V24.87h1.34v9.24a3.13,3.13,0,0,1-.53,1.89,3,3,0,0,1-1.4,1.07A5.34,5.34,0,0,1,203.72,37.42Zm-.05-4.94a2.32,2.32,0,0,0,1.92-.85,3.7,3.7,0,0,0,.66-2.34,4,4,0,0,0-.66-2.38,2.2,2.2,0,0,0-1.92-.92,2.33,2.33,0,0,0-1.46.45,2.74,2.74,0,0,0-.87,1.19,4.63,4.63,0,0,0-.29,1.66,3.78,3.78,0,0,0,.66,2.3A2.3,2.3,0,0,0,203.67,32.48Z"/><path class="cls-1" d="M211.52,28.45v5.41h-1.38v-9h1.33v1.4h.12a2.61,2.61,0,0,1,1-1.1,3.38,3.38,0,0,1,3.86.42,3.47,3.47,0,0,1,.84,2.55v5.72h-1.38V28.24a2.3,2.3,0,0,0-.55-1.65,2,2,0,0,0-1.51-.6,2.22,2.22,0,0,0-1.64.64A2.41,2.41,0,0,0,211.52,28.45Z"/><path class="cls-1" d="M223.43,34a3.77,3.77,0,0,1-3.56-2.2,5.44,5.44,0,0,1-.51-2.43,5.5,5.5,0,0,1,.51-2.45,3.92,3.92,0,0,1,1.43-1.63A3.92,3.92,0,0,1,227,27a5.36,5.36,0,0,1,.52,2.45,5.31,5.31,0,0,1-.52,2.43,3.9,3.9,0,0,1-1.42,1.63A4,4,0,0,1,223.43,34Zm0-1.24a2.32,2.32,0,0,0,1.52-.47,2.79,2.79,0,0,0,.89-1.25,4.76,4.76,0,0,0,.29-1.67,4.86,4.86,0,0,0-.29-1.68,2.82,2.82,0,0,0-.89-1.26,2.33,2.33,0,0,0-1.52-.48,2.36,2.36,0,0,0-1.52.48,2.8,2.8,0,0,0-.88,1.26,4.86,4.86,0,0,0-.29,1.68,4.76,4.76,0,0,0,.29,1.67,2.77,2.77,0,0,0,.88,1.25A2.36,2.36,0,0,0,223.43,32.8Z"/><path class="cls-1" d="M236,26.88l-1.24.35a2.46,2.46,0,0,0-.61-.88,1.87,1.87,0,0,0-1.33-.41,2.36,2.36,0,0,0-1.37.38,1.12,1.12,0,0,0-.55,1,1,1,0,0,0,.37.81,3.07,3.07,0,0,0,1.17.5l1.34.33c1.59.39,2.39,1.2,2.39,2.43a2.24,2.24,0,0,1-.45,1.38,2.85,2.85,0,0,1-1.23,1,4.41,4.41,0,0,1-1.84.35,4,4,0,0,1-2.27-.59,2.65,2.65,0,0,1-1.14-1.75l1.31-.32a1.89,1.89,0,0,0,2.08,1.45,2.56,2.56,0,0,0,1.54-.42,1.19,1.19,0,0,0,.57-1c0-.63-.45-1.06-1.34-1.26l-1.5-.35a3.62,3.62,0,0,1-1.81-.91,2.37,2.37,0,0,1-.14-2.9,2.93,2.93,0,0,1,1.17-.92,4.19,4.19,0,0,1,1.7-.33,3.38,3.38,0,0,1,2.1.59A3.1,3.1,0,0,1,236,26.88Z"/><path class="cls-1" d="M238.93,23.37a.94.94,0,0,1-.69-.28.84.84,0,0,1-.29-.66.86.86,0,0,1,.29-.66,1,1,0,0,1,1.38,0,.86.86,0,0,1,.29.66.84.84,0,0,1-.29.66A.94.94,0,0,1,238.93,23.37Zm-.7,10.49v-9h1.38v9Z"/><path class="cls-1" d="M248.51,26.88l-1.24.35a2.74,2.74,0,0,0-.61-.88,1.9,1.9,0,0,0-1.34-.41,2.36,2.36,0,0,0-1.37.38,1.14,1.14,0,0,0-.55,1,1,1,0,0,0,.38.81,3.07,3.07,0,0,0,1.17.5l1.33.33c1.59.39,2.39,1.2,2.39,2.43a2.29,2.29,0,0,1-.44,1.38,3,3,0,0,1-1.23,1,4.41,4.41,0,0,1-1.84.35,4,4,0,0,1-2.28-.59,2.65,2.65,0,0,1-1.14-1.75l1.31-.32a1.9,1.9,0,0,0,2.09,1.45,2.52,2.52,0,0,0,1.53-.42,1.19,1.19,0,0,0,.57-1c0-.63-.44-1.06-1.33-1.26l-1.5-.35a3.58,3.58,0,0,1-1.81-.91,2.16,2.16,0,0,1-.58-1.55,2.2,2.2,0,0,1,.43-1.35,3,3,0,0,1,1.18-.92,4.14,4.14,0,0,1,1.69-.33,3.38,3.38,0,0,1,2.1.59A3.18,3.18,0,0,1,248.51,26.88Z"/><path class="cls-1" d="M262.13,24.87a1.8,1.8,0,0,0-.85-1.38,3.28,3.28,0,0,0-1.84-.5,3,3,0,0,0-1.92.57,1.75,1.75,0,0,0-.73,1.42,1.42,1.42,0,0,0,.4,1,2.66,2.66,0,0,0,.94.62,7.54,7.54,0,0,0,1,.33l1.22.33c.31.08.66.2,1,.34a4.94,4.94,0,0,1,1.11.59,3.06,3.06,0,0,1,.87.95,2.74,2.74,0,0,1,.35,1.42,3.15,3.15,0,0,1-.51,1.76,3.5,3.5,0,0,1-1.47,1.25,5.56,5.56,0,0,1-2.35.46,4.76,4.76,0,0,1-3.07-.92,3.23,3.23,0,0,1-1.24-2.38h1.5a1.86,1.86,0,0,0,.46,1.12,2.45,2.45,0,0,0,1,.65,3.83,3.83,0,0,0,1.33.22,3.73,3.73,0,0,0,1.49-.28,2.51,2.51,0,0,0,1.05-.76,1.75,1.75,0,0,0,.39-1.14,1.41,1.41,0,0,0-.34-1,2.42,2.42,0,0,0-.88-.61,8.9,8.9,0,0,0-1.17-.41l-1.48-.42A5.6,5.6,0,0,1,256.21,27a2.54,2.54,0,0,1-.82-2,2.85,2.85,0,0,1,.55-1.75,3.43,3.43,0,0,1,1.47-1.17,5,5,0,0,1,2.08-.42,4.83,4.83,0,0,1,2.06.41A3.59,3.59,0,0,1,263,23.25a2.81,2.81,0,0,1,.56,1.62Z"/><path class="cls-1" d="M266.74,37.35a2.9,2.9,0,0,1-.62-.06,1.5,1.5,0,0,1-.38-.11l.35-1.22a2.07,2.07,0,0,0,1.26,0,1.91,1.91,0,0,0,.87-1.21l.3-.85-3.32-9h1.5L269.18,32h.09l2.48-7.16h1.5l-3.86,10.44A2.71,2.71,0,0,1,266.74,37.35Z"/><path class="cls-1" d="M281.45,26.88l-1.25.35a2.56,2.56,0,0,0-.6-.88,1.9,1.9,0,0,0-1.34-.41,2.36,2.36,0,0,0-1.37.38,1.12,1.12,0,0,0-.55,1,1,1,0,0,0,.38.81,3.07,3.07,0,0,0,1.17.5l1.33.33c1.59.39,2.39,1.2,2.39,2.43a2.29,2.29,0,0,1-.44,1.38,3,3,0,0,1-1.23,1,4.41,4.41,0,0,1-1.84.35,4,4,0,0,1-2.28-.59,2.65,2.65,0,0,1-1.14-1.75l1.31-.32a1.89,1.89,0,0,0,2.08,1.45,2.54,2.54,0,0,0,1.54-.42,1.19,1.19,0,0,0,.57-1c0-.63-.44-1.06-1.33-1.26l-1.5-.35a3.58,3.58,0,0,1-1.81-.91,2.16,2.16,0,0,1-.58-1.55,2.2,2.2,0,0,1,.43-1.35,3,3,0,0,1,1.18-.92,4.11,4.11,0,0,1,1.69-.33,3.38,3.38,0,0,1,2.1.59A3.18,3.18,0,0,1,281.45,26.88Z"/><path class="cls-1" d="M287.6,24.87V26h-1.92v5.24a1.73,1.73,0,0,0,.18.88.81.81,0,0,0,.44.38,1.57,1.57,0,0,0,.58.1,1.9,1.9,0,0,0,.37,0l.24,0,.28,1.24a3,3,0,0,1-.4.11,2.81,2.81,0,0,1-.63,0,2.77,2.77,0,0,1-1.15-.25,2.26,2.26,0,0,1-.92-.76,2.17,2.17,0,0,1-.37-1.3V26h-1.36V24.87h1.36V22.71h1.38v2.16Z"/><path class="cls-1" d="M293.36,34a4.26,4.26,0,0,1-2.24-.57,3.85,3.85,0,0,1-1.44-1.62,5.42,5.42,0,0,1-.51-2.42,5.57,5.57,0,0,1,.51-2.44,4.07,4.07,0,0,1,1.41-1.65,3.87,3.87,0,0,1,2.13-.59,4.45,4.45,0,0,1,1.39.23,3.5,3.5,0,0,1,1.24.76,3.57,3.57,0,0,1,.9,1.39,5.94,5.94,0,0,1,.33,2.12v.58h-6.52a3.14,3.14,0,0,0,.81,2.21,2.71,2.71,0,0,0,2,.76,2.62,2.62,0,0,0,1.4-.35,2,2,0,0,0,.85-1.05l1.33.37a3,3,0,0,1-1.26,1.65A4.1,4.1,0,0,1,293.36,34Zm-2.8-5.4h5.12a2.74,2.74,0,0,0-.67-1.9,2.27,2.27,0,0,0-1.79-.75,2.46,2.46,0,0,0-1.37.37,2.73,2.73,0,0,0-.91,1A3.15,3.15,0,0,0,290.56,28.64Z"/><path class="cls-1" d="M299.19,33.86v-9h1.34v1.4h.11a2.29,2.29,0,0,1,.91-1.12,2.71,2.71,0,0,1,1.5-.4,2.59,2.59,0,0,1,1.49.4,2.79,2.79,0,0,1,.93,1.12h.09a2.64,2.64,0,0,1,1-1.11,3.2,3.2,0,0,1,1.65-.41,2.68,2.68,0,0,1,2,.75,3.15,3.15,0,0,1,.77,2.34v6h-1.38v-6a1.68,1.68,0,0,0-.55-1.42,2,2,0,0,0-1.28-.43,1.9,1.9,0,0,0-1.47.57,2.09,2.09,0,0,0-.52,1.44v5.86h-1.4V27.7a1.65,1.65,0,0,0-.5-1.24,1.8,1.8,0,0,0-1.28-.47,1.88,1.88,0,0,0-1,.29,2.11,2.11,0,0,0-.75.79,2.36,2.36,0,0,0-.29,1.17v5.62Z"/></g></g></svg>